<svg xmlns="http://www.w3.org/2000/svg" width="67" height="35" viewBox="0 0 17.6 9.2"><defs/><path d="M1.2.7h15.2c.6 0 1.2.7 1.2 1.4v5c0 .7-.6 1.3-1.2 1.3H1.2C.5 8.4 0 7.8 0 7.1V2C0 1.4.5.7 1.2.7z"/><path d="M2.5 2.5h12.9c.2 0 .5.3.5.6v3.3c0 .3-.3.6-.5.6h-13c-.2 0-.4-.3-.4-.6V3c0-.3.2-.6.5-.6z"/><path fill="none" stroke="#fff" stroke-width="1.5" d="M733.3 497.2h48.8c1 0 1.8 1 1.8 2.2v11.4c0 1.2-.8 2.2-1.8 2.2h-48.8c-1 0-1.8-1-1.8-2.2v-11.4c0-1.2.8-2.2 1.8-2.2z" transform="matrix(.26458 0 0 .28521 -191.6 -139.3)"/><path d="M3.8 1.8c-1.1 0-2-.4-2-.9s.9-.9 2-.9c1 0 1.9.4 1.9 1s-.9.8-2 .8zm10 0c-1 0-1.9-.4-1.9-.9s.9-.9 2-.9c1 0 1.8.4 1.8 1s-.8.8-1.9.8zM3.6 9.2c-1 0-2-.4-2-.9s1-.9 2-.9 1.9.4 1.9 1-.9.8-2 .8zm10 0c-1 0-1.9-.4-1.9-.9s.9-.9 2-.9c1 0 1.8.4 1.8 1s-.8.8-1.9.8z"/></svg>