<svg xmlns="http://www.w3.org/2000/svg" width="512" height="512"><path d="M418.816 11.264c-22.528-2.048-56.32 15.36-61.44 30.72 58.368 21.504 107.52 65.536 137.216 119.808 16.384-18.432 17.408-45.056 15.36-68.608-5.12-44.032-45.056-82.944-91.136-81.92zm-324.608 0c22.528-2.048 56.32 15.36 62.464 30.72C97.28 63.488 49.152 107.52 18.432 161.792 3.072 143.36 2.048 116.736 3.072 93.184c6.144-44.032 45.056-82.944 91.136-81.92zm162.816 23.552c-60.416-1.024-119.808 19.456-165.888 59.392-61.44 51.2-104.448 134.144-87.04 215.04 17.408 95.232 100.352 167.936 193.536 186.368 102.4 22.528 218.112-17.408 276.48-106.496 35.84-52.224 47.104-121.856 25.6-182.272-27.648-89.088-111.616-154.624-201.728-168.96-13.312-2.048-26.624-3.072-40.96-3.072zm-71.68 140.288c25.6-1.024 39.936 33.792 21.504 51.2-17.408 18.432-52.224 4.096-51.2-21.504 0-16.384 13.312-29.696 29.696-29.696zm142.336 0c25.6-1.024 39.936 33.792 21.504 51.2-17.408 18.432-52.224 4.096-51.2-21.504 0-16.384 13.312-29.696 29.696-29.696zM256 265.216c23.552 0 59.392 9.216 58.368 38.912-8.192 26.624-41.984 31.744-67.584 30.72-22.528 0-61.44-20.48-45.056-48.128 12.288-16.384 34.816-21.504 54.272-21.504z"/></svg>