<svg height="71" viewBox="0 0 544 71" width="544" xmlns="http://www.w3.org/2000/svg"><path d="m296.2 526h6l9.2 16h-5.4l-6.8-11.8-6.5 11.8h-5.4l8.8-16m35.8 0h18.7v4h-18.7zm0 0h18.7v4h-18.7zm0 0h18.7v4h-18.7zm6.8 16h5.1v-10.8h-5.1zm-26.8-16h18.7v4h-18.7zm6.8 16h5.1v-10.8h-5.1zm71.8-16h18.7v4h-18.7zm6.8 16h5.1v-10.8h-5.1zm-44.6 0h5.2v-16h-5.2zm6.1 0h10.1v-4.3h-10.1zm-93.6-16v16h5.1v-6.4h9c2.1 0 2.2 2.5 0 2.5h-7.6v3.9h8.8c1.4 0 2.5-.1 3.3-.4 2.1-.8 2.7-3.2 2.3-5.4-.3-1.2-.9-1.7-1.6-2-.1 0-1-.4-1.1-.4.4-.1 1.2-.4 1.7-1.1.5-.8.6-2.3.5-3.4-.3-1.7-1.8-3.3-5.2-3.3h-8.6v3.8h7.1c2.2 0 2.2 2.4 0 2.4h-8.4v-6.2h-5.1m105.3 0h5.3v6.3h11.8v3.4h-11.8v6.4h-5.3v-16m6.6 3.7h11.2v-3.8h-11.2zm0 12.2h11.5v-3.9h-11.5zm34.3-16h5.3v6.3h11.8v3.4h-11.8v6.4h-5.3v-16m6.5 3.7h11.2v-3.8h-11.2zm0 12.2h11.5v-3.9h-11.5zm14-7.7h5.4v1.3c0 2.3 1.9 2.3 5.2 2.3h.3c4.7 0 5.2 0 5.2-2.3h5.2v2.1c0 4.3-3.8 4.3-8.5 4.3h-4.9c-5.8 0-7.8-1.3-7.8-7.2v-.6m5.2-1.5v-.4c0-2.3 1.9-2.3 5.2-2.3h.3c4.4 0 5.2 0 5.2 1.9h4.9v-1.7c0-2.3-1.5-3.5-2.9-4-1.4-.4-3.3-.4-5.3-.4h-4.9c-5.7 0-7.8 1.2-7.8 6.9h5.4m24.7-1v4h8.1v-4zm-6.2 10.3h5v-16h-5zm15.5 0h5v-16h-5z" fill="#231f20" transform="matrix(2.56697726 0 0 2.56697726 -679.741476 -1327.097503)"/></svg>