<svg height="71" width="544" xmlns="http://www.w3.org/2000/svg"><path d="M30.1 53.1c3.2 0 5.4-.6 6.7-1.7s1.9-2.4 1.9-3.8c0-1.3-.6-2.3-1.9-3s-2.7-1-4.3-1h-5.3L25.3 53zM.6 67.1L11.8 8.4h30.9c13.4 1.3 20.1 5.6 20.1 13 0 .5 0 1-.1 1.6-.7 6.6-4.5 11.3-11.3 13.9 6.8 2.5 9.9 7.1 9.3 13.7-2.1 10.1-8.9 15.6-20.5 16.5H.7zm32.3-35.9c2.5 0 4.3-.6 5.4-1.7s1.6-2.3 1.6-3.3c0-.8-.4-1.5-1.1-2.2s-2.1-1-4.2-1h-3.4l-1.5 8.2H33zm21.5 36L87.9 8.6h26.6l12.9 58.6H84.5l11.2-24.5h3.4l-.9-15.6-18 40.1zm75.6 0l8.7-40.3h-12.6l9-18.4H178l-3.4 18.3-12.9.3-7.7 40.1h-24.1zm51.2 0l8.5-40.3h-12.6l9.2-18.4h42.9l-3.6 18.3-12.7.3-7.7 40.1zm40.1 0l11.2-58.6h24l-7.7 40.1h20.6L266 67.3zm48.6 0l11.3-58.6h45.2l-3 16.1h-21.2l-1 5.5h18.5l-3.1 15.6h-18.2l-1 5.1h20.9l-2.9 16.4zm60.3 0l8.5-40.1h-12.6l9.2-18.6h43l-3.6 18.3-12.7.3-7.7 40.1h-24zm40.8 0l11.3-58.6h45.2l-3 16.1h-21.2l-1.1 5.5h18.6l-3.1 15.6h-18.2l-1 5.1h20.9l-2.9 16.4zm50.9-28.1c.9-5.7 3.1-10.8 6.5-15.3 3.4-4.4 7.9-8.1 13.4-10.9s11.6-4.4 18.2-4.7h2.2c5.7 0 11 .9 15.6 2.8l-3.7 21.9c-2.7-2.6-5.4-4.3-7.9-5.1s-5-1-7.3-.6c-2.3.3-4.5 1.1-6.5 2.3-2 1.1-3.6 2.7-4.7 4.6-1.1 1.8-1.7 3.8-1.7 5.9 0 2 .8 4.2 2.4 6.3 1.6 2 4.6 3.3 8.9 3.5s9.3-1.5 14.8-5.1l-4.3 21.1c-1.7 1.1-5 2-9.8 2.8-1.8.2-3.7.5-5.7.5-3.4 0-7.1-.5-11.1-1.3-6.4-1.3-11.6-4.8-15.5-10.5-2.9-4.2-4.3-8.5-4.3-13.1 0-1.6.2-3.2.5-4.9zM471 67.2l11.2-58.7h23.5L502 28.1h14.2l3.7-19.6h23.5l-11.1 58.6h-23.5l3.7-19.6h-14l-4 19.6H471z"/></svg>