<svg height="71" width="544" xmlns="http://www.w3.org/2000/svg"><path d="M447.3 69.7c-14.2-2.6-23.9-12-26.2-25.4-3-16.8 6.8-31.7 23.6-36 5.2-1.3 13.2-1.4 17.9-.2 7.4 1.9 14.2 7.1 17.6 13.6L482 25l-16 7.2c-1.5-2.7-3.4-5-4.8-6.1-5.5-4.2-14.3-2.7-18.5 3.1-5.7 7.9-3.2 19.2 5.2 23.1 3.4 1.6 7.8 1.7 10.9.3 2-.9 6.3-4.9 6.3-5.9l16.4 5.7c.8.8-4.8 8.7-8 11.3-3.9 3.1-7.7 4.9-12.9 6-4.9 1-8 1-13.3.1zM.1 69.1L0 8.5l21.7-.1c21.4.2 21.7.2 24.2 1.4 5.3 2.6 8.6 7.2 9 12.6.5 6-2.3 11.8-6.9 14.1l-2.2 1.1 2.2 1c2.9 1.3 6.2 5.1 7.4 8.6 1.4 4.1.9 9.8-1.1 13.5-2.6 4.7-6.4 7.3-12.3 8.2-14 .7-27.9.2-41.9.2zm35.8-16.4c.8-.6 1.2-1.4 1.2-2.6 0-3.7-1.4-4.2-10.9-4.2h-7.7v7.7h8.1c6.4 0 8.3-.2 9.3-.8zm-.6-23.4c1.2-1.6 1-3.9-.4-4.9-.9-.7-2.8-.8-8.7-.8h-7.5v7.2l8-.2c7.1-.1 8-.3 8.7-1.2zm92.9 39.8l-.4-44.5H112V8.4h50.8v16.2H147l-.3 44.5zm54.6 0l-.4-44.5h-16.1L166 8.3h51.3v16.3h-15.8l-.3 44.5zm38.9.1V8.4h18.6V53h22.9l-.3 16.1zm46.4-60.7h99.6v16.2h-15.4l-.7 44.5H333V24.7h-46.4v5.5h27.3v16.4h-27.3v6.6h27.9l-.3 16.1-46.1.3zM372 69.1l-.3-60.7h46.4v16.2h-27.7v5.5h27.2v16.4h-27.1v6.3l27.7.3v16.1zM485.2 8.5h18.6v21.1h21.3V8.5h18.5v60.7l-18.3-.1-.3-23.2h-21.2l-.3 23.2h-18.3zM70.7 54.3h38.1l8.6 15H62.2zm-9-5.2L89.8 0l28.6 49.3-18.8-.1-9.7-17-9.8 17.1z"/></svg>