<svg xmlns="http://www.w3.org/2000/svg" viewBox="0 0 0 0 80 0 100" height="17" width="15"><path d="M5.923 0h6.375a1.545 1.545 0 0 1 1.352 1.545c0 .773-.772 1.16-1.545 1.16l-5.023.386-.966.966h.387c2.704 0 4.25 2.125 4.25 4.443 0 2.318-1.546 4.443-4.25 4.443l-.387-.193.773 1.16 5.409.385c.773 0 1.352.387 1.352 1.353A1.545 1.545 0 0 1 12.298 17H5.923a1.545 1.545 0 0 1-1.16-.773L.708 9.273a1.545 1.545 0 0 1 0-1.546L4.764.773A1.545 1.545 0 0 1 5.923 0zm.58 6.182a2.318 2.318 0 0 0 0 4.636c1.352 0 2.318-.966 2.318-2.318s-.966-2.318-2.318-2.318z"/></svg>