<svg height="61.5" width="245.7" xmlns="http://www.w3.org/2000/svg"><linearGradient id="a" gradientUnits="userSpaceOnUse" x1="31.072" x2="31.072" y1="-.035" y2="58.184"><stop offset="0" stop-color="#eac500"/><stop offset="1" stop-color="#ffecab"/></linearGradient><path d="M15.6 58.2L0 29.1 15.6 0h31.1l15.6 29.1-15.6 29.1z" fill="#fff8d2"/><path d="M84.9 36.5c-2.2-4.1-4.5-8.2-6.7-12.4h-2.6v12.4h-7.4V5.3h13c3.5.2 7.3 1.2 9.4 4.2 1.6 2.4 1.8 5.7.9 8.4-.9 2.6-3.3 4.4-5.9 5.2 2.7 4.4 5.4 8.9 8.1 13.3h-8.8zm-.3-21.6c.1-1.9-1.6-3.2-3.3-3.3-1.9-.2-3.8-.1-5.7-.1v7.3c2.1-.1 4.3.2 6.4-.4 1.5-.4 2.7-1.8 2.6-3.4zm12.7 21.6V5.3h20.9v6.4h-13.7v5.9h12.9v6h-12.9v6.5H119v6.4zm54.9 0l.2-22h-.1l-8.1 22h-5.3l-7.9-22h-.1l.2 22H124V5.3h10.7l7.1 20h.2l6.8-20h10.9v31.2h-7.3zm12.1 0V5.3h7.6v24.6H184v6.6h-19.6zm45.8 0l-2.4-6.1h-12.1l-2.3 6.1h-8.2l13.1-31.2h7.3l12.9 31.2H210zm-8.4-22.8l-4 10.7h7.8l-3.9-10.7zm43.7 13.8c.1 2.8-1.3 5.6-3.7 7.1-3.2 2-7.1 2-10.7 2h-9.9V5.4h13.3c3.2.2 6.7 1.1 8.6 3.9 1.4 2.1 1.4 5 .4 7.3-.9 1.8-2.6 3-4.4 3.6.7.3 1.8.5 2.6 1 2.3 1.2 3.8 3.8 3.8 6.4zm-8.5-13.1c.1-1.5-1.2-2.6-2.5-2.8-2-.4-4-.2-6-.2v6.4c1.9 0 3.8.1 5.7-.2 1.6-.3 2.9-1.6 2.8-3.2zm1 12.4c.1-1.4-.9-2.7-2.2-3-2.2-.7-4.6-.3-6.9-.4-.7-.2-.3.7-.4 1.1v6c2.1 0 4.2.1 6.3-.2 1.6-.3 3.3-1.5 3.2-3.2z" fill="#eac500"/><path d="M73 55.1l3.4-11.6H78l3.4 11.6 3.3-11.6h1.4l-4 13.5h-1.6l-3.4-11.6L73.7 57h-1.6l-4-13.5h1.4l3.3 11.6zm21.3-3.3c0-1.2-.7-2.4-1.9-2.8-1.1-.3-2.4-.1-3.2.8-.5.5-.9 1.2-.9 2h6.1zm1.3.4c0 .2.1.6-.1.6h-7.3c0 1.3.8 2.5 2.1 3 1.1.4 2.5.2 3.4-.5.3-.1.5-.7.8-.7.3.2.6.5.9.7-.7 1-1.9 1.7-3.1 1.8-1.4.2-2.9-.2-3.9-1.1s-1.5-2.3-1.5-3.7c0-1.7 1-3.3 2.5-4s3.3-.6 4.6.4c1.1.8 1.6 2.2 1.6 3.6zm4.1 3.3V57h-1.3V42.6h1.3v7c.4-.5 1-1.1 1.6-1.4 2-1 4.7-.2 5.7 1.8 1.2 2 .7 5-1.3 6.3-1.8 1.2-4.5 1-5.9-.7-.1 0-.1-.2-.2-.2zm6.6-2.9c0-1.4-.8-2.9-2.2-3.4s-3.2 0-4 1.3c-1 1.5-.8 3.8.7 5 1.1.9 2.9.9 4.1.1.9-.7 1.4-1.8 1.4-3zm15.7 2.1l4.5-11.1h2.1v13.5h-1.4V45.4l-4.9 11.7h-.7l-4.9-11.7v11.7h-1.4V43.6h2.1zm16.8-2.9c0-1.2-.7-2.4-1.9-2.8-1.1-.3-2.4-.1-3.2.8-.5.5-.9 1.2-.9 2h6.1zm1.3.4c0 .2.1.6-.1.6h-7.3c0 1.3.8 2.5 2.1 3 1.1.4 2.5.2 3.4-.5.3-.1.5-.7.8-.7.3.2.6.5.9.7-.7 1-1.9 1.7-3.1 1.8-1.4.2-2.9-.2-3.9-1.1s-1.5-2.3-1.5-3.7c0-1.7 1-3.3 2.5-4s3.3-.6 4.6.4c1.1.8 1.6 2.2 1.6 3.6zm9.3-2.1c-.6-.9-1.8-1.3-2.8-1.1-1.2.2-2.3 1.1-2.6 2.2-.4 1.4-.2 3.1.9 4.1.9.8 2.3 1 3.5.6.5-.2.9-.5 1.2-.9.3.2.6.5 1 .7-.8.9-1.9 1.5-3.2 1.5-1.3.1-2.6-.3-3.5-1.2-1.4-1.3-1.8-3.3-1.2-5.1.4-1.2 1.3-2.2 2.4-2.7 1.3-.5 2.7-.6 4 0 .5.2 1 .6 1.4 1.1l-1 .7zm4.4-.6c.6-1.3 2.3-1.9 3.7-1.6 1 .1 1.9.8 2.3 1.7.5 1.1.3 2.4.4 3.6V57h-1.3v-5.4c0-1-.4-2.1-1.4-2.4-1-.4-2.3-.1-3 .8s-.8 2-.7 3.1v4h-1.3V42.7h1.3v6.9zm14.5-6h5c2.3.2 4.5 1.3 5.6 3.3 1 1.6 1.1 3.7.6 5.5-.7 2.1-2.5 3.8-4.7 4.3-1.4.4-2.9.3-4.3.3h-2.3V43.4zm1.4 12.2c1.2 0 2.5 0 3.7-.1 2-.2 3.9-1.4 4.6-3.3 1-2.3.2-5.3-1.9-6.6-1.2-.8-2.7-1.1-4.1-1h-2.3zm19.7-3.9c0-1.2-.7-2.4-1.9-2.8-1.1-.3-2.4-.1-3.2.8-.5.5-.9 1.2-.9 2h6.1zm1.3.4c0 .2.1.6-.1.6h-7.3c0 1.3.8 2.5 2.1 3 1.1.4 2.5.2 3.4-.5.3-.1.5-.7.8-.7.3.2.6.5.9.7-.7 1-1.9 1.7-3.1 1.8-1.4.2-2.9-.2-3.9-1.1s-1.5-2.3-1.5-3.7c0-1.7 1-3.3 2.5-4s3.3-.6 4.6.4c1.1.8 1.6 2.2 1.6 3.6zm7.6-2c-.5-.9-1.7-1.4-2.7-1.2-.6.1-1.4.5-1.4 1.3-.1.5.3 1 .8 1.2 1 .4 2.1.4 3 1 .7.3 1.3.9 1.3 1.7.1.9-.2 1.9-.9 2.4-.7.6-1.7.7-2.6.7-1.3-.1-2.6-.6-3.3-1.7.3-.3.7-.5 1-.8.6 1 1.7 1.5 2.8 1.4.7 0 1.4-.3 1.7-1 .2-.5 0-1.2-.5-1.4-1-.6-2.1-.7-3.1-1-.8-.3-1.5-1-1.5-2-.1-.9.4-1.8 1.1-2.2 1.3-.8 3.1-.7 4.3.2.3.2.6.5.8.9l-1 .7zm5 6.8H202v-8.9h1.3zm.3-12.3c0 .7-.8 1.2-1.4.8-.6-.3-.6-1.2 0-1.5.6-.4 1.4.1 1.4.8zm3.6 14.1c1.3 1.6 3.7 2.1 5.5 1.1 1.1-.7 1.5-2 1.4-3.2v-1.4c-.4.5-1 1.1-1.6 1.3-2 .9-4.8.2-5.8-1.8-1.1-2-.6-4.7 1.3-6.1 1.7-1.3 4.4-1.1 5.8.5.2.4.4.5.3 0V48h1.3v9.1c-.1 1.2-.5 2.5-1.5 3.3-1.2 1-2.8 1.2-4.3 1-1.2-.2-2.4-.8-3.3-1.7.3-.3.6-.7.9-1zm.2-6.3c0 1.3.7 2.7 2 3.2 1.5.6 3.4.1 4.2-1.3.9-1.5.6-3.6-.8-4.7-1.4-1.2-3.8-.9-4.8.6-.4.6-.6 1.4-.6 2.1zm12.5-4.4c.1.5.1 1 .1 1.5.2-.2.3-.5.6-.7.8-.8 2-1.1 3.1-1 .9.1 1.8.6 2.2 1.4.5.8.6 1.8.6 2.8V57h-1.3v-5.3c0-.9-.2-1.8-1-2.4-.7-.5-1.8-.5-2.6-.1-1.1.6-1.5 1.8-1.6 2.9v4.8h-1.3v-7.5c0-.5 0-1-.1-1.4h1.2zm16.7 3.7c0-1.2-.7-2.4-1.9-2.8-1.1-.3-2.4-.1-3.2.8-.5.5-.9 1.2-.9 2h6.1zm1.3.4c0 .2.1.6-.1.6h-7.3c0 1.3.8 2.5 2.1 3 1.1.4 2.5.2 3.4-.5.3-.1.5-.7.8-.7.3.2.6.5.9.7-.7 1-1.9 1.7-3.1 1.8-1.4.2-2.9-.2-3.9-1.1s-1.5-2.3-1.5-3.7c0-1.7 1-3.3 2.5-4s3.3-.6 4.6.4c1.1.8 1.6 2.2 1.6 3.6zm2.8-2.2c0-.7 0-1.3-.1-2h1.2c.1.5.1 1 .1 1.5.2-.2.3-.5.5-.7.7-.7 1.7-1.1 2.6-1 .2.1.7 0 .5.3 0 .4-.1.7-.1 1.1-.9-.2-2-.1-2.7.6-.7.8-.9 1.8-.8 2.8V57h-1.3v-6.9z" fill="#af9400"/><path d="M46.7 0l15.5 29.1-14.3 26.8-.5-1.7c-1.4-4.1-3.1-7.2-5.1-9.3l-.8-.9-.1-1.4c0-1-.1-1.6-.3-2l-.3-.6.3-.9c.2-.6.3-1.1.2-1.4 0-.2-.1-1.1-.1-2s-.1-2.8-.2-4.3l-.1-2.6-.4 1.2c-.7 2-3.3 6.8-3.5 6.8-.1 0-.5-.3-1.1-.6l-1-.6s-.1.8-.1 1.8v1.8h1V44l.9.9c.5.5.9 1 .9 1 0 .1-.3.6-.7 1.2-1.4 2.1-2.5 4.6-2.6 6.2l-.1.8-.8.1c-1 .1-1 .3-.1 1.3l.7.8v1.9h-6.1l.1-2 .7-.9c.4-.5.7-.9.7-1s-.2-.2-.9-.2h-.9v-.6c0-1.7-1.4-4.9-3.1-7.3l-.3-.4.9-1 .9-1V39h.5c.3 0 .5.1.6.2 0 .1.1-.7.1-1.8v-1.9l-1 .5-1.1.5-.5-.7c-.9-1.4-2.6-4.6-3.1-5.9l-.5-1.2-.1 2.9c0 1.6-.1 3.1-.2 3.4s0 .8.1 1.2c.1.5.1.7-.1 1-.2.4-.2 1 .2 2 .2.6.2.6 0 1.3-.2.4-.3 1.2-.3 2.1l-.1 1.4-.9 1c-1.2 1.3-2.1 2.7-3.2 4.8-1 1.9-1.7 4-2.3 6.1L0 29.1 15.6 0zm-32 44.7c-.1 0-.1 0-.2.1s-.3.2-.4.3c-.3.2-.3.2-.1.2.4 0 .8-.3.7-.5zm32.9 0c-.1 0-.1 0-.1.1s.1.2.5.4c.1 0 .3.1.4.1.2 0 .1 0-.1-.1-.1-.1-.3-.2-.5-.3l-.2-.1h-.1zM14 43.8h-.1c-.2.1-.3.1-.4.3-.1.1-.3.4-.4.5s-.2.3-.2.3c0 .2.9-.2 1.3-.6.3-.3.3-.4.1-.6-.1-.1 0-.1-.3-.1zm34.4-.1c-.2 0-.4.1-.4.3s.6.7 1.2.9c.1 0 .3.1.3.1h.1c.1 0 0-.1-.2-.4-.7-.8-.7-.8-1-.8zm2-1.4c-.2 0-.7.5-.8.9 0 .2-.1.4-.2.4-.1.2 0 .3.4.7.1.1.3.2.3.2.1 0 .7-.7 1.1-1.2l.3-.4-.2-.2c-.2-.1-.8-.4-1-.4zm-38.5.1c-.2 0-.9.6-.9.8 0 .1.3.4.6.8s.6.7.7.7.2-.1.4-.3c.3-.3.3-.4.1-.8-.2-.5-.6-1.1-.9-1.1zm3.6.9c-.3.4-.2.2-.4.6-.1.3-.1.4 0 .5s.1.2.1.2c.1 0 .5-1 .5-1.1s0-.2-.1-.2zm31.3-.1l-.1.1c0 .1 0 .3.2.7l.2.5.1-.2c.1-.2.1-.2-.2-.8-.2-.3 0-.2-.3-.3zm-33.5-1.1h-.1c-.1 0-.3.1-.5.1h-.3l.3.3c.2.2.3.4.4.7.1.2.1.4.1.4h.2c.1 0 .3-.1.5-.1l.4-.1-.2-.3c-.1-.2-.3-.5-.5-.7-.2-.3-.1-.2-.4-.3zm35.8-.1c-.3.1-.2 0-.4.2s-.7 1-.7 1 .2.1.3.1c.6.1.9.1.9-.2 0-.2.2-.6.4-.8s.2-.3-.4-.3H49zm-33.5.4c-.3.1-.2 0-.5.2-.3.1-.5.2-.5.2s0 .1.1.3l.1.2.1-.2c.1-.3.4-.4.6-.5.2 0 .2 0 .1-.2zm31.3-.1s.1.2.3.3.3.4.4.5l.1.2.2-.3.2-.3-.1-.1c-.1 0-.3-.1-.5-.2s-.1 0-.3-.1zm-2.8-25.4c-.9 0-.5-.1-1.1.2-.2.1-.8.2-1.4.3-1.1.1-1.4.2-1.9.6-.2.2-.3.4-.3 1 0 .9.4 1.8 1.4 3 .7.9 1 1.7 1 3v1l.6.3c.9.5 1.5 1.4 1.8 2.9.1.5 0 .8-.3 1.7-.4 1.1-.4 1.2-.4 3.5 0 1.6-.1 2.4-.2 2.5-.3.3-.2.8.3 1.2.3.2.6.7.9 1.4.2.6.7 1.5 1.1 2.1l.6 1 .4-.6c1-1.7 3.1-2.7 4.3-2.1.5.3 1 .9 1.2 1.7.1.4.2.7.2.7s.4-.2.9-.4c.8-.4.9-.5.9-1 0-.3.2-.8.4-1 .7-1 .5-3.1-.4-4.4-.3-.5-.4-.7-.3-1.3.1-.7.1-.7-.3-.9s-.5-.4-.9-1.9c-.5-1.7-1.8-4.4-2.1-4.4-.1 0-.2.4-.2.8-.1.8-.4 1.3-.8 1.3s-1.2-.7-1.6-1.3c-.3-.4-.4-.8-.4-1.2V26h-1.6v-.6c0-.6 0-.6.4-.6.5 0 .5-.1.4-.5-.2-.6.1-1.4.8-2 1-1 1.1-1.3.4-2-.3-.3-.7-.8-.9-1.3-.2-.4-.6-1-.8-1.3-.5-.5-1.1-.9-1.9-1zm-25.6.1c-1.2 0-2.2.7-2.9 2.3-.2.4-.6.9-.8 1.1s-.5.5-.5.6c-.2.3.1 1 .7 1.4.8.6 1.1 1.7.8 2.3-.1.2-.1.3.3.3.5 0 .5 0 .5.6v.6H15v.5c0 .8-.3 1.3-1 1.9-.4.4-.7.6-1 .6-.5 0-.6-.3-.8-1.3-.1-.4-.2-.7-.2-.7-.3 0-1.4 2.4-2 4.2-.5 1.6-.6 1.9-1 2.1s-.4.3-.3.9 0 .7-.3 1.3C7.5 37.2 7.3 39 8 40c.2.4.4.7.4 1 0 .5 0 .5 1 1l1 .5.2-.7c.2-.9.6-1.5 1.1-1.8.6-.3 1.6-.3 2.4.1s1.9 1.5 2.1 2.1c.1.2.2.4.3.3.2-.1 1.1-1.7 1.6-2.8.3-.8.6-1.3 1-1.6.6-.5.6-.7.2-1.2-.2-.3-.3-.4-.1-1.3.2-1.3 0-3.2-.5-4.7-.4-1.2-.4-1.9.1-2.9.3-.7.9-1.3 1.6-1.7l.4-.2.1-1.3c.1-1.5.4-2.4 1.2-3.4.9-1.1 1.1-1.9.9-2.8-.2-.8-.4-.9-1.6-.9-.9 0-1.2-.1-1.5-.3s-.7-.3-1.1-.3zm-4.3 24c-.1 0-.3.3-.4.6-.1.2-.1.2.1.5.2.2.2.2.4.2.3-.1.8-.3.8-.4s-.8-.9-.9-.9zm33.9-.2l-.5.4c-.3.3-.5.5-.4.5 0 0 .2.2.4.2l.4.2c.1 0 .6-.5.6-.6s-.3-.5-.4-.7l-.1-.1zm1.7-.6c-.3 0-1.2.2-1.2.3 0 0 .1.2.2.3.1.2.2.4.3.5.1.2.1.2.7.2.7.1 1.1.2 1.4.4s.3.2.3 0c-.2-1.1-.8-1.8-1.6-1.8zm-36.9.1c-1 0-.6-.1-1.2.2-.3.2-.8 1.1-.8 1.4 0 .2 0 .2.3 0 .2-.1.7-.2 1.1-.3.8-.1.8-.1 1.1-.6l.3-.4-.4-.1-.4-.1zm19.9-17.2c-.3 0-.2 0-.4.2-.7.8-1.8.9-2.5.2-.4-.4-.5-.4-.8-.3-.2.1-.8.2-1.5.2-.6 0-1.5 0-1.8.1l-.7.1-.4.8c-.3.7-.4 1-.4 1.8 0 1.8.6 3.5 2.5 6.8l1.1 1.9v5.6h.4c.4 0 .4 0 .4.4 0 .3.1.5.2.5s1.2.1 2.4.1h2.2V41c0-.5 0-.5.3-.5h.3v-5.7l.7-1.2c1.1-1.8 2.2-4.1 2.6-5.2.4-1.2.4-2.9 0-4l-.3-.7h-2c-1.8 0-2-.1-2.3-.3l-.2-.1zm-7.9-9.8v2.3l-1 .9-1 .9.2.5c.3.6.2 1.9-.2 2.5-.1.2-.5.8-.9 1.3-.8 1.1-1 1.6-1 3.6 0 1.5 0 1.7.4 2.9.6 1.6 1.4 3.5 2.8 5.7.6 1 1.1 1.9 1.1 1.9.1 0 1.4-.7 1.6-.8.1-.1 0-.4-.4-1.1-1-1.8-2.2-4.2-2.4-5-.7-2-.7-3.5 0-4.9.6-1.3.5-1.2 2.7-1.3 1.1 0 2-.1 2.1-.2.2-.2-.5-2.1-1.1-2.8-.5-.7-.7-1.7-.5-2.3.2-.5 1.5-1.9 2.3-2.3l.7-.4h-.8c-.6 0-.8.1-1.1.3-.3.3-.3.3-.5.1s-.5-.2-1.2-.2h-1zm12.2-.3l-.9 1.8h-.9c-.7 0-1 .1-1.3.3-.3.3-.3.3-.6 0-.2-.2-.4-.3-1-.3h-.8l.4.2c.6.3 1.4.9 2.1 1.7.5.6.6.8.6 1.4 0 .8-.1 1.2-.7 1.9-.5.7-1.1 2.4-.9 2.7.1.1.6.2 2.3.2h2.1l.3.7c1.1 2.8.5 5.1-2.2 9.8-.4.6-.7 1.2-.7 1.2 0 .1.4.4.8.7.5.3.9.5.9.5.3 0 2.3-3.9 3.1-5.9.8-2.1 1.2-3.7 1.2-5.1s-.1-1.7-1.1-2.9c-1.1-1.4-1.6-3.1-1.2-4l.2-.4-1.7-1.8-.2-2.7zm-4 3.6c-.1 0-.3.2-.6.4-.4.4-.4.5-.4 1.3v.9H30v-.7c0-.9-.3-1.5-.8-1.7l-.4-.2-.4.5c-.2.3-.4.6-.4.7s.2.4.4.6c.4.3.5.6.6 1.3.3 1.6.6 2.6 1.2 3.1.6.7 1.1.7 1.7.1s.8-1 1.1-2.5.5-1.8.9-2.1c.2-.1.3-.3.3-.4 0-.2-.9-1.3-1.1-1.3zm-2.6-1.2c-.3.1-.1 0-.4.1-.4.2-1 .6-1 .6s.1.1.2.1.3.2.4.2c.2.2.2.2.3.1 0 0 .1-.1.2-.1.2 0 .2-.1.2-.5v-.2c0-.3.1-.2-.1-.4zm1.2 0c-.3.1-.1.2-.1.5.1.6.1.6.3.7h.2s.1-.1.3-.2.3-.2.4-.2c.2 0-.1-.3-.6-.6-.3-.2-.1-.1-.4-.2z" fill="url(#a)"/><path d="M15.6 58.2L0 29.1 15.6 0h31.1l15.6 29.1-15.6 29.1z" fill="#fff8d2"/><path d="M84.9 36.5c-2.2-4.1-4.5-8.2-6.7-12.4h-2.6v12.4h-7.4V5.3h13c3.5.2 7.3 1.2 9.4 4.2 1.6 2.4 1.8 5.7.9 8.4-.9 2.6-3.3 4.4-5.9 5.2 2.7 4.4 5.4 8.9 8.1 13.3h-8.8zm-.3-21.6c.1-1.9-1.6-3.2-3.3-3.3-1.9-.2-3.8-.1-5.7-.1v7.3c2.1-.1 4.3.2 6.4-.4 1.5-.4 2.7-1.8 2.6-3.4zm12.7 21.6V5.3h20.9v6.4h-13.7v5.9h12.9v6h-12.9v6.5H119v6.4zm54.9 0l.2-22h-.1l-8.1 22h-5.3l-7.9-22h-.1l.2 22H124V5.3h10.7l7.1 20h.2l6.8-20h10.9v31.2h-7.3zm12.1 0V5.3h7.6v24.6H184v6.6h-19.6zm45.8 0l-2.4-6.1h-12.1l-2.3 6.1h-8.2l13.1-31.2h7.3l12.9 31.2H210zm-8.4-22.8l-4 10.7h7.8l-3.9-10.7zm43.7 13.8c.1 2.8-1.3 5.6-3.7 7.1-3.2 2-7.1 2-10.7 2h-9.9V5.4h13.3c3.2.2 6.7 1.1 8.6 3.9 1.4 2.1 1.4 5 .4 7.3-.9 1.8-2.6 3-4.4 3.6.7.3 1.8.5 2.6 1 2.3 1.2 3.8 3.8 3.8 6.4zm-8.5-13.1c.1-1.5-1.2-2.6-2.5-2.8-2-.4-4-.2-6-.2v6.4c1.9 0 3.8.1 5.7-.2 1.6-.3 2.9-1.6 2.8-3.2zm1 12.4c.1-1.4-.9-2.7-2.2-3-2.2-.7-4.6-.3-6.9-.4-.7-.2-.3.7-.4 1.1v6c2.1 0 4.2.1 6.3-.2 1.6-.3 3.3-1.5 3.2-3.2z" fill="#eac500"/><path d="M73 55.1l3.4-11.6H78l3.4 11.6 3.3-11.6h1.4l-4 13.5h-1.6l-3.4-11.6L73.7 57h-1.6l-4-13.5h1.4l3.3 11.6zm21.3-3.3c0-1.2-.7-2.4-1.9-2.8-1.1-.3-2.4-.1-3.2.8-.5.5-.9 1.2-.9 2h6.1zm1.3.4c0 .2.1.6-.1.6h-7.3c0 1.3.8 2.5 2.1 3 1.1.4 2.5.2 3.4-.5.3-.1.5-.7.8-.7.3.2.6.5.9.7-.7 1-1.9 1.7-3.1 1.8-1.4.2-2.9-.2-3.9-1.1s-1.5-2.3-1.5-3.7c0-1.7 1-3.3 2.5-4s3.3-.6 4.6.4c1.1.8 1.6 2.2 1.6 3.6zm4.1 3.3V57h-1.3V42.6h1.3v7c.4-.5 1-1.1 1.6-1.4 2-1 4.7-.2 5.7 1.8 1.2 2 .7 5-1.3 6.3-1.8 1.2-4.5 1-5.9-.7-.1 0-.1-.2-.2-.2zm6.6-2.9c0-1.4-.8-2.9-2.2-3.4s-3.2 0-4 1.3c-1 1.5-.8 3.8.7 5 1.1.9 2.9.9 4.1.1.9-.7 1.4-1.8 1.4-3zm15.7 2.1l4.5-11.1h2.1v13.5h-1.4V45.4l-4.9 11.7h-.7l-4.9-11.7v11.7h-1.4V43.6h2.1zm16.8-2.9c0-1.2-.7-2.4-1.9-2.8-1.1-.3-2.4-.1-3.2.8-.5.5-.9 1.2-.9 2h6.1zm1.3.4c0 .2.1.6-.1.6h-7.3c0 1.3.8 2.5 2.1 3 1.1.4 2.5.2 3.4-.5.3-.1.5-.7.8-.7.3.2.6.5.9.7-.7 1-1.9 1.7-3.1 1.8-1.4.2-2.9-.2-3.9-1.1s-1.5-2.3-1.5-3.7c0-1.7 1-3.3 2.5-4s3.3-.6 4.6.4c1.1.8 1.6 2.2 1.6 3.6zm9.3-2.1c-.6-.9-1.8-1.3-2.8-1.1-1.2.2-2.3 1.1-2.6 2.2-.4 1.4-.2 3.1.9 4.1.9.8 2.3 1 3.5.6.5-.2.9-.5 1.2-.9.3.2.6.5 1 .7-.8.9-1.9 1.5-3.2 1.5-1.3.1-2.6-.3-3.5-1.2-1.4-1.3-1.8-3.3-1.2-5.1.4-1.2 1.3-2.2 2.4-2.7 1.3-.5 2.7-.6 4 0 .5.2 1 .6 1.4 1.1l-1 .7zm4.4-.6c.6-1.3 2.3-1.9 3.7-1.6 1 .1 1.9.8 2.3 1.7.5 1.1.3 2.4.4 3.6V57h-1.3v-5.4c0-1-.4-2.1-1.4-2.4-1-.4-2.3-.1-3 .8s-.8 2-.7 3.1v4h-1.3V42.7h1.3v6.9zm14.5-6h5c2.3.2 4.5 1.3 5.6 3.3 1 1.6 1.1 3.7.6 5.5-.7 2.1-2.5 3.8-4.7 4.3-1.4.4-2.9.3-4.3.3h-2.3V43.4zm1.4 12.2c1.2 0 2.5 0 3.7-.1 2-.2 3.9-1.4 4.6-3.3 1-2.3.2-5.3-1.9-6.6-1.2-.8-2.7-1.1-4.1-1h-2.3zm19.7-3.9c0-1.2-.7-2.4-1.9-2.8-1.1-.3-2.4-.1-3.2.8-.5.5-.9 1.2-.9 2h6.1zm1.3.4c0 .2.1.6-.1.6h-7.3c0 1.3.8 2.5 2.1 3 1.1.4 2.5.2 3.4-.5.3-.1.5-.7.8-.7.3.2.6.5.9.7-.7 1-1.9 1.7-3.1 1.8-1.4.2-2.9-.2-3.9-1.1s-1.5-2.3-1.5-3.7c0-1.7 1-3.3 2.5-4s3.3-.6 4.6.4c1.1.8 1.6 2.2 1.6 3.6zm7.6-2c-.5-.9-1.7-1.4-2.7-1.2-.6.1-1.4.5-1.4 1.3-.1.5.3 1 .8 1.2 1 .4 2.1.4 3 1 .7.3 1.3.9 1.3 1.7.1.9-.2 1.9-.9 2.4-.7.6-1.7.7-2.6.7-1.3-.1-2.6-.6-3.3-1.7.3-.3.7-.5 1-.8.6 1 1.7 1.5 2.8 1.4.7 0 1.4-.3 1.7-1 .2-.5 0-1.2-.5-1.4-1-.6-2.1-.7-3.1-1-.8-.3-1.5-1-1.5-2-.1-.9.4-1.8 1.1-2.2 1.3-.8 3.1-.7 4.3.2.3.2.6.5.8.9l-1 .7zm5 6.8H202v-8.9h1.3zm.3-12.3c0 .7-.8 1.2-1.4.8-.6-.3-.6-1.2 0-1.5.6-.4 1.4.1 1.4.8zm3.6 14.1c1.3 1.6 3.7 2.1 5.5 1.1 1.1-.7 1.5-2 1.4-3.2v-1.4c-.4.5-1 1.1-1.6 1.3-2 .9-4.8.2-5.8-1.8-1.1-2-.6-4.7 1.3-6.1 1.7-1.3 4.4-1.1 5.8.5.2.4.4.5.3 0V48h1.3v9.1c-.1 1.2-.5 2.5-1.5 3.3-1.2 1-2.8 1.2-4.3 1-1.2-.2-2.4-.8-3.3-1.7.3-.3.6-.7.9-1zm.2-6.3c0 1.3.7 2.7 2 3.2 1.5.6 3.4.1 4.2-1.3.9-1.5.6-3.6-.8-4.7-1.4-1.2-3.8-.9-4.8.6-.4.6-.6 1.4-.6 2.1zm12.5-4.4c.1.5.1 1 .1 1.5.2-.2.3-.5.6-.7.8-.8 2-1.1 3.1-1 .9.1 1.8.6 2.2 1.4.5.8.6 1.8.6 2.8V57h-1.3v-5.3c0-.9-.2-1.8-1-2.4-.7-.5-1.8-.5-2.6-.1-1.1.6-1.5 1.8-1.6 2.9v4.8h-1.3v-7.5c0-.5 0-1-.1-1.4h1.2zm16.7 3.7c0-1.2-.7-2.4-1.9-2.8-1.1-.3-2.4-.1-3.2.8-.5.5-.9 1.2-.9 2h6.1zm1.3.4c0 .2.1.6-.1.6h-7.3c0 1.3.8 2.5 2.1 3 1.1.4 2.5.2 3.4-.5.3-.1.5-.7.8-.7.3.2.6.5.9.7-.7 1-1.9 1.7-3.1 1.8-1.4.2-2.9-.2-3.9-1.1s-1.5-2.3-1.5-3.7c0-1.7 1-3.3 2.5-4s3.3-.6 4.6.4c1.1.8 1.6 2.2 1.6 3.6zm2.8-2.2c0-.7 0-1.3-.1-2h1.2c.1.5.1 1 .1 1.5.2-.2.3-.5.5-.7.7-.7 1.7-1.1 2.6-1 .2.1.7 0 .5.3 0 .4-.1.7-.1 1.1-.9-.2-2-.1-2.7.6-.7.8-.9 1.8-.8 2.8V57h-1.3v-6.9z" fill="#af9400"/><path d="M46.7 0l15.5 29.1-14.3 26.8-.5-1.7c-1.4-4.1-3.1-7.2-5.1-9.3l-.8-.9-.1-1.4c0-1-.1-1.6-.3-2l-.3-.6.3-.9c.2-.6.3-1.1.2-1.4 0-.2-.1-1.1-.1-2s-.1-2.8-.2-4.3l-.1-2.6-.4 1.2c-.7 2-3.3 6.8-3.5 6.8-.1 0-.5-.3-1.1-.6l-1-.6s-.1.8-.1 1.8v1.8h1V44l.9.9c.5.5.9 1 .9 1 0 .1-.3.6-.7 1.2-1.4 2.1-2.5 4.6-2.6 6.2l-.1.8-.8.1c-1 .1-1 .3-.1 1.3l.7.8v1.9h-6.1l.1-2 .7-.9c.4-.5.7-.9.7-1s-.2-.2-.9-.2h-.9v-.6c0-1.7-1.4-4.9-3.1-7.3l-.3-.4.9-1 .9-1V39h.5c.3 0 .5.1.6.2 0 .1.1-.7.1-1.8v-1.9l-1 .5-1.1.5-.5-.7c-.9-1.4-2.6-4.6-3.1-5.9l-.5-1.2-.1 2.9c0 1.6-.1 3.1-.2 3.4s0 .8.1 1.2c.1.5.1.7-.1 1-.2.4-.2 1 .2 2 .2.6.2.6 0 1.3-.2.4-.3 1.2-.3 2.1l-.1 1.4-.9 1c-1.2 1.3-2.1 2.7-3.2 4.8-1 1.9-1.7 4-2.3 6.1L0 29.1 15.6 0zm-32 44.7c-.1 0-.1 0-.2.1s-.3.2-.4.3c-.3.2-.3.2-.1.2.4 0 .8-.3.7-.5zm32.9 0c-.1 0-.1 0-.1.1s.1.2.5.4c.1 0 .3.1.4.1.2 0 .1 0-.1-.1-.1-.1-.3-.2-.5-.3l-.2-.1h-.1zM14 43.8h-.1c-.2.1-.3.1-.4.3-.1.1-.3.4-.4.5s-.2.3-.2.3c0 .2.9-.2 1.3-.6.3-.3.3-.4.1-.6-.1-.1 0-.1-.3-.1zm34.4-.1c-.2 0-.4.1-.4.3s.6.7 1.2.9c.1 0 .3.1.3.1h.1c.1 0 0-.1-.2-.4-.7-.8-.7-.8-1-.8zm2-1.4c-.2 0-.7.5-.8.9 0 .2-.1.4-.2.4-.1.2 0 .3.4.7.1.1.3.2.3.2.1 0 .7-.7 1.1-1.2l.3-.4-.2-.2c-.2-.1-.8-.4-1-.4zm-38.5.1c-.2 0-.9.6-.9.8 0 .1.3.4.6.8s.6.7.7.7.2-.1.4-.3c.3-.3.3-.4.1-.8-.2-.5-.6-1.1-.9-1.1zm3.6.9c-.3.4-.2.2-.4.6-.1.3-.1.4 0 .5s.1.2.1.2c.1 0 .5-1 .5-1.1s0-.2-.1-.2zm31.3-.1l-.1.1c0 .1 0 .3.2.7l.2.5.1-.2c.1-.2.1-.2-.2-.8-.2-.3 0-.2-.3-.3zm-33.5-1.1h-.1c-.1 0-.3.1-.5.1h-.3l.3.3c.2.2.3.4.4.7.1.2.1.4.1.4h.2c.1 0 .3-.1.5-.1l.4-.1-.2-.3c-.1-.2-.3-.5-.5-.7-.2-.3-.1-.2-.4-.3zm35.8-.1c-.3.1-.2 0-.4.2s-.7 1-.7 1 .2.1.3.1c.6.1.9.1.9-.2 0-.2.2-.6.4-.8s.2-.3-.4-.3H49zm-33.5.4c-.3.1-.2 0-.5.2-.3.1-.5.2-.5.2s0 .1.1.3l.1.2.1-.2c.1-.3.4-.4.6-.5.2 0 .2 0 .1-.2zm31.3-.1s.1.2.3.3.3.4.4.5l.1.2.2-.3.2-.3-.1-.1c-.1 0-.3-.1-.5-.2s-.1 0-.3-.1zm-2.8-25.4c-.9 0-.5-.1-1.1.2-.2.1-.8.2-1.4.3-1.1.1-1.4.2-1.9.6-.2.2-.3.4-.3 1 0 .9.4 1.8 1.4 3 .7.9 1 1.7 1 3v1l.6.3c.9.5 1.5 1.4 1.8 2.9.1.5 0 .8-.3 1.7-.4 1.1-.4 1.2-.4 3.5 0 1.6-.1 2.4-.2 2.5-.3.3-.2.8.3 1.2.3.2.6.7.9 1.4.2.6.7 1.5 1.1 2.1l.6 1 .4-.6c1-1.7 3.1-2.7 4.3-2.1.5.3 1 .9 1.2 1.7.1.4.2.7.2.7s.4-.2.9-.4c.8-.4.9-.5.9-1 0-.3.2-.8.4-1 .7-1 .5-3.1-.4-4.4-.3-.5-.4-.7-.3-1.3.1-.7.1-.7-.3-.9s-.5-.4-.9-1.9c-.5-1.7-1.8-4.4-2.1-4.4-.1 0-.2.4-.2.8-.1.8-.4 1.3-.8 1.3s-1.2-.7-1.6-1.3c-.3-.4-.4-.8-.4-1.2V26h-1.6v-.6c0-.6 0-.6.4-.6.5 0 .5-.1.4-.5-.2-.6.1-1.4.8-2 1-1 1.1-1.3.4-2-.3-.3-.7-.8-.9-1.3-.2-.4-.6-1-.8-1.3-.5-.5-1.1-.9-1.9-1zm-25.6.1c-1.2 0-2.2.7-2.9 2.3-.2.4-.6.9-.8 1.1s-.5.5-.5.6c-.2.3.1 1 .7 1.4.8.6 1.1 1.7.8 2.3-.1.2-.1.3.3.3.5 0 .5 0 .5.6v.6H15v.5c0 .8-.3 1.3-1 1.9-.4.4-.7.6-1 .6-.5 0-.6-.3-.8-1.3-.1-.4-.2-.7-.2-.7-.3 0-1.4 2.4-2 4.2-.5 1.6-.6 1.9-1 2.1s-.4.3-.3.9 0 .7-.3 1.3C7.5 37.2 7.3 39 8 40c.2.4.4.7.4 1 0 .5 0 .5 1 1l1 .5.2-.7c.2-.9.6-1.5 1.1-1.8.6-.3 1.6-.3 2.4.1s1.9 1.5 2.1 2.1c.1.2.2.4.3.3.2-.1 1.1-1.7 1.6-2.8.3-.8.6-1.3 1-1.6.6-.5.6-.7.2-1.2-.2-.3-.3-.4-.1-1.3.2-1.3 0-3.2-.5-4.7-.4-1.2-.4-1.9.1-2.9.3-.7.9-1.3 1.6-1.7l.4-.2.1-1.3c.1-1.5.4-2.4 1.2-3.4.9-1.1 1.1-1.9.9-2.8-.2-.8-.4-.9-1.6-.9-.9 0-1.2-.1-1.5-.3s-.7-.3-1.1-.3zm-4.3 24c-.1 0-.3.3-.4.6-.1.2-.1.2.1.5.2.2.2.2.4.2.3-.1.8-.3.8-.4s-.8-.9-.9-.9zm33.9-.2l-.5.4c-.3.3-.5.5-.4.5 0 0 .2.2.4.2l.4.2c.1 0 .6-.5.6-.6s-.3-.5-.4-.7l-.1-.1zm1.7-.6c-.3 0-1.2.2-1.2.3 0 0 .1.2.2.3.1.2.2.4.3.5.1.2.1.2.7.2.7.1 1.1.2 1.4.4s.3.2.3 0c-.2-1.1-.8-1.8-1.6-1.8zm-36.9.1c-1 0-.6-.1-1.2.2-.3.2-.8 1.1-.8 1.4 0 .2 0 .2.3 0 .2-.1.7-.2 1.1-.3.8-.1.8-.1 1.1-.6l.3-.4-.4-.1-.4-.1zm19.9-17.2c-.3 0-.2 0-.4.2-.7.8-1.8.9-2.5.2-.4-.4-.5-.4-.8-.3-.2.1-.8.2-1.5.2-.6 0-1.5 0-1.8.1l-.7.1-.4.8c-.3.7-.4 1-.4 1.8 0 1.8.6 3.5 2.5 6.8l1.1 1.9v5.6h.4c.4 0 .4 0 .4.4 0 .3.1.5.2.5s1.2.1 2.4.1h2.2V41c0-.5 0-.5.3-.5h.3v-5.7l.7-1.2c1.1-1.8 2.2-4.1 2.6-5.2.4-1.2.4-2.9 0-4l-.3-.7h-2c-1.8 0-2-.1-2.3-.3l-.2-.1zm-7.9-9.8v2.3l-1 .9-1 .9.2.5c.3.6.2 1.9-.2 2.5-.1.2-.5.8-.9 1.3-.8 1.1-1 1.6-1 3.6 0 1.5 0 1.7.4 2.9.6 1.6 1.4 3.5 2.8 5.7.6 1 1.1 1.9 1.1 1.9.1 0 1.4-.7 1.6-.8.1-.1 0-.4-.4-1.1-1-1.8-2.2-4.2-2.4-5-.7-2-.7-3.5 0-4.9.6-1.3.5-1.2 2.7-1.3 1.1 0 2-.1 2.1-.2.2-.2-.5-2.1-1.1-2.8-.5-.7-.7-1.7-.5-2.3.2-.5 1.5-1.9 2.3-2.3l.7-.4h-.8c-.6 0-.8.1-1.1.3-.3.3-.3.3-.5.1s-.5-.2-1.2-.2h-1zm12.2-.3l-.9 1.8h-.9c-.7 0-1 .1-1.3.3-.3.3-.3.3-.6 0-.2-.2-.4-.3-1-.3h-.8l.4.2c.6.3 1.4.9 2.1 1.7.5.6.6.8.6 1.4 0 .8-.1 1.2-.7 1.9-.5.7-1.1 2.4-.9 2.7.1.1.6.2 2.3.2h2.1l.3.7c1.1 2.8.5 5.1-2.2 9.8-.4.6-.7 1.2-.7 1.2 0 .1.4.4.8.7.5.3.9.5.9.5.3 0 2.3-3.9 3.1-5.9.8-2.1 1.2-3.7 1.2-5.1s-.1-1.7-1.1-2.9c-1.1-1.4-1.6-3.1-1.2-4l.2-.4-1.7-1.8-.2-2.7zm-4 3.6c-.1 0-.3.2-.6.4-.4.4-.4.5-.4 1.3v.9H30v-.7c0-.9-.3-1.5-.8-1.7l-.4-.2-.4.5c-.2.3-.4.6-.4.7s.2.4.4.6c.4.3.5.6.6 1.3.3 1.6.6 2.6 1.2 3.1.6.7 1.1.7 1.7.1s.8-1 1.1-2.5.5-1.8.9-2.1c.2-.1.3-.3.3-.4 0-.2-.9-1.3-1.1-1.3zm-2.6-1.2c-.3.1-.1 0-.4.1-.4.2-1 .6-1 .6s.1.1.2.1.3.2.4.2c.2.2.2.2.3.1 0 0 .1-.1.2-.1.2 0 .2-.1.2-.5v-.2c0-.3.1-.2-.1-.4zm1.2 0c-.3.1-.1.2-.1.5.1.6.1.6.3.7h.2s.1-.1.3-.2.3-.2.4-.2c.2 0-.1-.3-.6-.6-.3-.2-.1-.1-.4-.2z" fill="url(#a)"/></svg>