<svg xmlns="http://www.w3.org/2000/svg" height="66" viewBox="0 0 0 0 300 0 100" width="274"><linearGradient id="a" gradientUnits="userSpaceOnUse" x1="40.656" x2="40.656" y1="49.186" y2="5.912"><stop offset="0" stop-color="#e4c100"/><stop offset="1" stop-color="#ffec9d"/></linearGradient><path d="M17.498 65.483L0 32.743 17.498.001h34.996l17.498 32.742-17.498 32.74z" fill="#d1a800"/><g fill="#eac500" transform="translate(-27.706 -24.383) scale(1.09736)"><path d="M113.535 58.296l-6.732-12.364h-2.552v12.364h-7.392V27.144c4.33.018 8.663-.036 12.993.03 3.477.193 7.337 1.195 9.394 4.247 1.629 2.424 1.788 5.66.874 8.383-.936 2.593-3.332 4.418-5.925 5.16l8.14 13.332zm-.308-21.604c.138-1.852-1.597-3.188-3.3-3.344-1.897-.235-3.814-.092-5.72-.132v7.26c2.127-.071 4.305.22 6.38-.363 1.542-.397 2.736-1.782 2.64-3.42zm12.764 21.604V27.144h20.944v6.38h-13.684v5.852h12.936v6.028h-12.936v6.468h14.476v6.424zm54.975 0l.176-22.044h-.132l-8.096 22.044h-5.28l-7.876-22.044h-.132l.176 22.044h-7.084V27.144h10.692l7.084 19.976h.176l6.776-19.976h10.868v31.152zm13.775 0V27.144h7.568V51.74h12.056v6.556z"/><path d="M238.979 58.296l-2.42-6.116h-12.056l-2.288 6.116h-8.184l13.068-31.152h7.304l12.936 31.152zm-8.36-22.836l-3.96 10.692h7.832zM274.2 49.232c.126 2.808-1.267 5.628-3.696 7.084-3.182 2.046-7.065 2.016-10.712 1.98h-9.88V27.144c4.439.016 8.878-.03 13.316.025 3.176.185 6.743 1.06 8.605 3.878 1.353 2.124 1.43 4.98.426 7.26-.866 1.77-2.597 2.983-4.439 3.577.736.321 1.836.486 2.611.997 2.348 1.167 3.816 3.752 3.77 6.351zm-8.536-13.068c.123-1.464-1.156-2.561-2.499-2.799-1.971-.395-3.995-.182-5.993-.237v6.424c1.904-.05 3.824.13 5.711-.16 1.574-.239 2.893-1.578 2.781-3.228zm1.012 12.364c.115-1.405-.869-2.704-2.238-3.01-2.233-.662-4.584-.346-6.878-.422-.673-.174-.287.709-.388 1.107v6.021c2.089-.05 4.195.135 6.267-.179 1.604-.27 3.267-1.453 3.23-3.237z"/></g><path d="M78.556 45.295h2.085l3.252 11.8h.042l3.482-11.8h2.293l3.482 11.8h.042l3.253-11.8h2.085l-4.295 14.761H92.17l-3.585-12.051h-.042l-3.567 12.051h-2.104zm22.067 10.508c-.044 1.19.863 2.217 1.935 2.615 1.109.437 2.495.369 3.392-.482.351-.112.57-.973.924-.578l1.213.926c-.899 1.214-2.365 1.931-3.863 2.005-1.534.137-3.167-.327-4.248-1.463-1.363-1.49-1.692-3.76-1.025-5.636.558-1.545 1.917-2.769 3.525-3.127 1.422-.308 3.029-.146 4.203.776.974.727 1.547 1.876 1.75 3.057.132.627.119 1.27.117 1.907zm5.92-1.501c-.019-.99-.43-2.072-1.366-2.532-1.323-.7-3.129-.32-3.995.92-.342.465-.562 1.031-.56 1.612zm4.421-10.008h1.877v7.297c.413-.507.951-1.015 1.597-1.264 2.09-.944 4.821-.207 6.058 1.751 1.4 2.192 1.093 5.447-.957 7.14-1.778 1.47-4.729 1.51-6.36-.205-.264-.444-.402-.42-.338.046v.998h-1.877zm5.13 14.261c1.282.055 2.564-.739 2.993-1.964.555-1.493.255-3.462-1.145-4.386-1.47-.977-3.765-.593-4.635 1.01-.748 1.398-.63 3.334.516 4.487.603.583 1.438.87 2.271.853zm14.04-13.26h2.981l4.692 11.175h.083l4.65-11.175h2.981v14.761h-2.002V47.922h-.041l-4.983 12.134h-1.335l-4.983-12.134h-.042v12.134h-2.001zm20.133 10.508c-.044 1.19.864 2.217 1.936 2.615 1.107.437 2.494.369 3.392-.482.351-.112.57-.973.924-.578l1.212.926c-.9 1.214-2.364 1.931-3.862 2.005-1.536.137-3.167-.327-4.248-1.463-1.363-1.49-1.692-3.76-1.026-5.636.558-1.545 1.917-2.769 3.524-3.127 1.423-.308 3.03-.146 4.203.776.976.727 1.548 1.876 1.75 3.057.132.627.12 1.27.118 1.907zm5.921-1.501c-.02-.99-.43-2.072-1.367-2.532-1.322-.7-3.13-.32-3.994.92-.343.465-.562 1.031-.56 1.612zm11.489-1.502c-.692-.752-1.713-1.21-2.744-1.094-1.116.046-2.113.831-2.5 1.866-.562 1.394-.374 3.186.792 4.221.892.827 2.277.96 3.38.524.447-.156.825-.645 1.152-.828l1.295 1.295c-1.052 1.22-2.76 1.635-4.313 1.5-1.657-.115-3.28-1.058-4.027-2.568-.705-1.392-.757-3.079-.253-4.544.433-1.26 1.412-2.32 2.656-2.808 1.8-.743 4.022-.509 5.547.731.187.183.613.408.23.598l-1.215 1.109zm3.144-8.506h1.876v7.401c.314-.519.78-1.066 1.383-1.332 1.335-.672 3.099-.597 4.29.347.988.813 1.271 2.162 1.208 3.384v5.962H177.7c-.008-2.055.016-4.113-.01-6.168-.034-.95-.624-1.94-1.608-2.131-1.164-.308-2.547.216-3.031 1.364-.512 1.1-.315 2.334-.355 3.507v3.428h-1.876zm17.842 1c1.968.013 3.938-.025 5.907.022 2.304.101 4.666 1.19 5.859 3.232 1.579 2.578 1.552 6.141-.335 8.559-1.55 2.036-4.183 3.017-6.694 2.95h-4.737zm2.001 12.886c1.596-.039 3.221.142 4.78-.293 1.922-.49 3.595-2.068 3.901-4.071.337-1.972-.232-4.22-1.87-5.476-1.15-.944-2.673-1.22-4.122-1.169h-2.689zm14.857-2.377c-.043 1.19.864 2.217 1.936 2.615 1.108.437 2.494.369 3.392-.482.351-.112.57-.973.924-.578l1.213.926c-.9 1.214-2.365 1.931-3.862 2.005-1.536.137-3.168-.327-4.249-1.463-1.363-1.49-1.692-3.76-1.025-5.636.558-1.545 1.917-2.769 3.525-3.127 1.422-.308 3.029-.146 4.203.776.974.727 1.547 1.876 1.75 3.057.132.627.119 1.27.116 1.907zm5.922-1.501c-.019-.99-.432-2.072-1.368-2.532-1.322-.7-3.128-.32-3.994.92-.342.465-.562 1.031-.56 1.612zm9.674-1.646c-.552-.695-1.46-1.096-2.345-.963-.545.068-1.249.325-1.317.955-.11.613.415 1.073.93 1.278.806.338 1.707.335 2.514.675.858.27 1.647.915 1.86 1.82.247 1.006.012 2.167-.79 2.866-.993.906-2.429 1.086-3.72.996-1.008-.072-2.046-.4-2.745-1.163-.132-.218-.687-.524-.294-.713l1.237-1.02c.62.61 1.385 1.189 2.296 1.167.747.02 1.668-.146 2.03-.883.248-.551-.128-1.164-.644-1.39-.885-.429-1.894-.476-2.807-.833-.87-.277-1.684-.96-1.828-1.904-.169-.91.067-1.912.755-2.559.98-.937 2.444-1.191 3.75-1 .977.147 1.966.593 2.508 1.458.163.17-.186.25-.283.373l-1.107.839zm4.29-2.483h1.876v9.883h-1.876zm-.438-3.544c-.039-.91.99-1.638 1.837-1.295.702.26 1.133 1.12.81 1.822-.287.732-1.228 1.077-1.917.694a1.36 1.36 0 0 1-.73-1.221zm15.357 13.344c.049 1.898-1.057 3.802-2.824 4.56-1.646.732-3.567.654-5.254.106-.807-.286-1.532-.772-2.159-1.35l1.273-1.586c.988 1.137 2.52 1.764 4.022 1.587 1.254-.057 2.538-.832 2.878-2.093.279-.897.165-1.843.188-2.767-.438.513-.954 1.141-1.657 1.386-2.137.907-4.897.107-6.09-1.92-1.378-2.24-.866-5.56 1.325-7.102 1.793-1.253 4.53-1.196 6.084.424.253.423.404.437.338-.03v-1.015h1.876zm-5.129-8.298c-1.309-.039-2.622.793-3.023 2.064-.48 1.388-.252 3.184.998 4.1 1.028.723 2.453.762 3.588.275 1.203-.538 1.778-1.924 1.687-3.185-.017-1.266-.736-2.574-1.97-3.015a3.324 3.324 0 0 0-1.28-.24zm8.126-1.502h1.877v1.522c.185-.204.318-.554.565-.752 1.272-1.207 3.372-1.34 4.845-.432 1.077.707 1.514 2.054 1.47 3.294v6.251h-1.876c-.004-2.029.009-4.059-.007-6.088-.022-.895-.494-1.88-1.412-2.147-1.054-.366-2.38-.048-3.012.917-.619.887-.581 2-.574 3.035v4.283h-1.876zm13.177 5.63c-.044 1.19.864 2.217 1.936 2.615 1.107.437 2.494.369 3.392-.482.351-.112.57-.973.924-.578l1.213.926c-.9 1.214-2.365 1.931-3.863 2.005-1.535.137-3.167-.327-4.248-1.463-1.363-1.49-1.692-3.76-1.026-5.636.559-1.545 1.918-2.769 3.526-3.127 1.422-.308 3.029-.146 4.203.776.974.727 1.547 1.876 1.75 3.057.132.627.118 1.27.116 1.907zm5.922-1.501c-.02-.99-.432-2.072-1.368-2.532-1.322-.7-3.128-.32-3.994.92-.342.465-.562 1.031-.56 1.612zm4.42-4.129h1.876v1.522c.19-.205.334-.548.582-.75.634-.666 1.567-1.012 2.478-1.02.232.045.71-.033.773.217l-.08 1.929c-.939-.275-2.048-.182-2.83.445-.795.66-.938 1.767-.923 2.741v4.8h-1.876z" fill="#bf9900"/><path d="M17.498 0L1.112 30.658h67.765L52.494 0zM.318 32.146L0 32.742l1.005 1.881h67.98l1.007-1.88-.319-.597zm2.107 5.135l1.848 3.457h61.445l1.848-3.457zm3.809 7.127l2.43 4.547h52.664l2.43-4.547zm4.85 9.074l2.494 4.666h42.836l2.494-4.666zm5.353 10.016l1.06 1.984h34.997l1.06-1.984z" fill="url(#a)"/><path d="M41.732 11.888c-.401.364-1.723.05-2.106.37-.487.405-.49.405-.837 0-.275-.324-.594-.406-1.537-.4l-1.19.008.653.301c.95.438 2.07 1.433 3.063 2.724.763.995.87 1.256.87 2.134 0 1.252-.22 1.874-1.048 2.965-.815 1.069-1.629 3.737-1.279 4.184.182.232 2.158.293 3.412.293s3.03-.09 3.493.722c.463.813.634 2.94.783 4.594h-.83s-.088-2.19-.375-3.039l-.385-1.138-3.001-.058c-2.682-.05-3.043-.1-3.412-.468l-.245-.232c-.427.014-.245-.068-.542.26-1.034 1.21-2.618 1.366-3.696.364-.616-.573-.756-.621-1.188-.414-.269.13-1.253.237-2.188.239-.933 0-2.168.06-2.745.134l-1.046.134-.563 1.261c-.47 1.22-.558 2.967-.558 2.967l-.905-.01s.204-2.278.693-3.345c.935-2.038.726-1.93 3.965-2.006 1.707-.041 2.945-.159 3.07-.293.315-.332-.739-3.287-1.588-4.456-.775-1.07-1.1-2.618-.754-3.585.298-.829 2.303-2.97 3.42-3.649l.973-.596h-1.157c-.92-.002-1.252.087-1.609.443-.422.42-.471.426-.808.104-.267-.256-.732-.345-1.816-.345l-1.6-1.505-.321 2.176-.788.435c-.969.945-1.936 1.891-2.903 2.838l.302.77c.38.96.262 2.97-.232 3.984-.192.394-.776 1.31-1.297 2.04-1.227 1.719-1.421 2.48-1.423 5.604 0 .613.026 1.425.026 1.425h-1.83l.232-.122.635-.32.088-2.1c.098-2.356.565-3.76 1.782-5.353 1.276-1.67 1.674-3.02 1.312-4.45-.339-1.334-.592-1.49-2.415-1.492-1.3 0-1.724-.084-2.28-.451-.465-.306-.996-.45-1.659-.452-1.793 0-3.242 1.183-4.382 3.575-.316.662-.849 1.473-1.183 1.8-.335.33-.692.757-.796.953-.275.527.219 1.616 1.033 2.274 1.131.914 1.657 2.64 1.124 3.693-.181.361-.133.4.488.4.688 0 .69.002.69.93v1.181l43.723-.039v-1.142c0-.885.028-.93.553-.93.73 0 .986.067.56-.822-.326-.918.128-2.221 1.121-3.213 1.505-1.504 1.6-2.06.532-3.17-.41-.427-1.03-1.341-1.376-2.028-.345-.686-.886-1.58-1.204-1.987-.775-.836-1.638-1.407-2.76-1.573-1.35.061-.802-.086-1.682.254-.29.157-1.23.351-2.09.435-1.647.159-2.067.31-2.778.997-.361.348-.44.64-.44 1.65 0 1.433.625 2.86 2.06 4.707 1.061 1.365 1.453 2.645 1.453 4.735v1.566c.204.12.628.469.628.469l-1.743.005s.209-1.447.211-2.127c.01-2.183-.188-2.758-1.57-4.565-1.686-2.203-2.425-4.855-1.743-6.252l.318-.654-2.568-2.882-1.007-.67-.466-1.96zm-5.65.93c-.406.225-.126.31-.144.783.074.87.083.82.409.886.117.025.284.256.3.264.018.007.224-.125.458-.296.234-.17.471-.309.53-.309.329 0-.095-.454-.915-.977-.393-.245-.179-.126-.638-.35zm-1.74.03c-.383.107-.207.035-.527.2-.58.317-1.436.913-1.441 1-.002.03.14.11.315.177.174.07.45.24.612.38.33.29.362.302.49.17.052-.051.204-.113.339-.13.229-.033.246-.086.323-.847.01-.116.028-.23.03-.347.015-.49.075-.349-.141-.602zm-2.573 1.897c-.523.522-.925 1.188-1.27 1.807 0 .158.296.585.656.947.54.542.696.904.883 2.05.407 2.491.956 4.024 1.759 4.918.948 1.058 1.634 1.104 2.536.17.892-.925 1.158-1.558 1.676-3.988.516-2.417.703-2.87 1.379-3.342.264-.183.48-.445.48-.583 0-.322-1.335-1.979-1.596-1.979-.11 0-.497.317-.862.704-.62.658-.664.792-.664 2.069v1.366h-3.125v-1.043c0-1.42-.392-2.323-1.193-2.748z" fill="#d4aa00"/></svg>