<svg viewBox="0 0 154.2 156.3" xmlns="http://www.w3.org/2000/svg"><linearGradient id="a" gradientUnits="userSpaceOnUse" x1="77.1" x2="77.1" y1=".2" y2="156.5"><stop offset="0" stop-color="#eac500"/><stop offset="1" stop-color="#f7e894"/></linearGradient><path d="M153.8.2l.4 156.2H123l-4.1-9a62.8 62.8 0 0 0-12.8-23.5l-2-2.2-.2-3.5c-.1-2.5-.4-3.9-.9-5l-.6-1.5.8-2.4c.6-1.6.8-2.7.6-3.4l-.3-5.2L103 90l-.3-6.6-1.1 3c-1.9 4.9-8.2 17-9 17a20 20 0 0 1-2.6-1.5l-2.5-1.5c-.1 0-.2 2-.2 4.5v4.4H90v12.1l2.3 2.3c1.3 1.3 2.3 2.4 2.3 2.6l-1.8 2.9a39.7 39.7 0 0 0-6.7 15.7l-.2 2-2 .3c-2.4.3-2.4.7-.2 3.3l1.6 2v2.6l.1 1.4H70.2l.2-4.2 1.7-2.2c1-1.1 1.8-2.3 1.8-2.6s-.5-.5-2.2-.5h-2.1v-1.4c0-4.3-3.5-12.3-8-18.3l-.7-1.1 2.3-2.4 2.4-2.4v-12H67c.8 0 1.4.1 1.5.3 0 .3.2-1.7.2-4.4v-4.9l-2.6 1.3-2.7 1.4-1.2-2c-2.2-3.4-6.6-11.6-8-14.7l-1.2-3-.2 7.2c-.1 4-.3 8-.5 8.7-.1.8 0 2 .2 3 .3 1.2.2 1.6-.2 2.4-.6 1.1-.4 2.5.5 5 .6 1.5.6 1.6 0 3.2-.4 1-.7 3-.8 5.3l-.3 3.5-2.3 2.5c-3 3.2-5.4 6.7-8 12-2.4 5-6 18.6-7.1 20.2H.4L0 .2zM36.4 123.4c-.3 0-.1 0-.4.2l-1.1.7c-.7.4-.7.5-.3.5 1 0 2-.8 1.9-1.3v-.1zm83-.1c-.2.1-.1 0-.2.3 0 .3.4.6 1.3 1l.9.2c.4 0 .3 0-.2-.4l-1.1-.8-.4-.3zm-84.8-2.2h-.4c-.5.2-.8.4-1.1 1l-1 1.2-.5.8c0 .5 2.3-.5 3.3-1.4.7-.7.8-1 .3-1.4-.3-.3 0-.2-.6-.2zm86.6-.3c-.6 0-1 .3-1 .8 0 .6 1.6 1.8 3 2.3.4 0 .7.2.7.2l.3-.1c.2 0 .1-.3-.6-1.1-1.8-2-1.8-2.1-2.4-2.1zm5.1-3.7c-.6 0-1.7 1.3-2 2.3 0 .4-.3 1-.4 1.1-.2.5 0 .8 1 1.8l.7.6c.3 0 1.8-1.7 2.8-3l.8-1-.4-.4c-.6-.6-2-1.4-2.5-1.4zm-97 .2c-.4 0-2.4 1.6-2.4 2l1.5 2 1.8 1.6 1-.8c.6-.6.6-.8.3-2-.4-1.2-1.7-2.8-2.2-2.8zm9 2.1c-.8 1-.4.5-1 1.6-.2.9-.2 1 0 1.4l.3.4a11 11 0 0 0 1.2-2.8c0-.2 0-.4-.2-.5h-.2zm78.9-.1l-.2.4c-.1.3 0 .6.5 1.7l.6 1.3.3-.4c.4-.5.4-.6-.4-2.2-.4-.7 0-.5-.8-.8zm-84.4-2.7h-.3a5 5 0 0 1-1.1.2h-.7l.7.8c.4.5.8 1 1 1.7 0 .5.2 1 .3 1a30.7 30.7 0 0 1 1.8-.3l1-.1-.4-.8-1.3-1.6c-.6-.7-.2-.4-1-.9zm90.2-.1c-.8.2-.5 0-1 .5-.5.6-1.7 2.4-1.6 2.5l.8.3c1.5.3 2.1.2 2.1-.5 0-.5.6-1.5 1.2-2.1.5-.6.4-.7-1-.7zm-84.6.9c-.8.2-.4 0-1.2.4l-1.3.6.3.6.4.6.3-.5c.3-.6 1-1.1 1.4-1.2.4 0 .5 0 .2-.4v-.1zm79-.2h-.1l.6.8 1 1.1.2.5.4-.7.3-.7-.3-.1-1.2-.6-1-.3zm-6.9-64c-2.3 0-1.3-.2-2.8.4-.5.2-2.1.5-3.6.7-2.8.2-3.5.5-4.7 1.6-.6.5-.7 1-.7 2.6 0 2.3 1 4.6 3.5 7.5 1.8 2.2 2.4 4.3 2.4 7.6v2.5l1.6.8c2.3 1.3 3.6 3.4 4.4 7.2.2 1.2 0 2-.8 4.3-1 2.8-1 3.1-1 8.8 0 4-.2 6-.5 6.3-.7.7-.4 2.1.7 3 .6.6 1.4 1.9 2.1 3.6l2.7 5.3 1.5 2.5 1-1.6c2.3-4.2 7.7-6.7 10.8-5.1 1.4.7 2.6 2.3 3 4.3l.5 1.7 2.2-1c2-1 2.2-1 2.4-2.3.1-.8.6-2 1.1-2.7 1.7-2.5 1.3-7.8-.9-11-.8-1.3-1-1.7-.8-3.2.2-1.7.2-1.8-.8-2.3-.9-.5-1.1-1-2.3-4.7a39.9 39.9 0 0 0-5.2-11.1c-.2 0-.4 1-.5 2-.2 2-1 3.4-2 3.4-.8 0-3-1.7-4-3.3-.7-1-1-1.9-1-3v-1.4h-4v-1.4c0-1.5.1-1.5 1-1.5 1.3 0 1.4-.2 1-1.3-.6-1.5.2-3.6 1.9-5.2 2.5-2.4 2.7-3.3.9-5-.7-.7-1.8-2.2-2.3-3.3l-2-3.2a7.8 7.8 0 0 0-4.8-2.5zm-64.6.1c-3 0-5.5 2-7.4 5.7a12 12 0 0 1-2 3c-.6.5-1.2 1.1-1.4 1.5-.4.8.4 2.5 1.8 3.6 1.9 1.4 2.8 4.2 1.9 5.9-.3.6-.2.6.8.6 1.2 0 1.2 0 1.2 1.5v1.5h-4V78c0 2-.6 3.3-2.4 5-1 1-1.8 1.3-2.5 1.3-1.2 0-1.6-.6-2-3.2 0-1-.3-1.9-.5-1.9-.7.1-3.6 6.2-5 10.6-1.3 4.1-1.6 4.7-2.5 5.2-1 .6-1 .6-.8 2.3.2 1.5.1 1.8-.8 3.2-2.3 3.7-2.7 8.2-1 10.9.7.9 1 1.8 1 2.6 0 1.2 0 1.3 2.4 2.5l2.4 1.2.4-1.7c.5-2.1 1.6-3.8 2.8-4.5 1.6-.8 4-.7 6.1.4 2 1 4.8 3.7 5.4 5.2.2.5.5.9.7.8.6-.4 2.8-4.4 4-7.1.7-2 1.5-3.3 2.3-4 1.4-1.4 1.5-1.9.6-3-.6-.8-.6-1-.3-3.4.5-3.2 0-8.1-1.2-12-1-3-1-4.7.2-7.4a8.6 8.6 0 0 1 4.1-4.2l1-.5.2-3.3c.2-3.8 1-6 3-8.6 2.2-2.7 2.9-4.8 2.3-7.1-.6-2.1-1-2.4-4.1-2.4-2.2 0-3-.1-3.9-.7-.8-.5-1.7-.7-2.8-.7zM35.2 114c-.3 0-.8.8-1 1.5-.3.5-.3.6.2 1.2.5.5.6.6 1 .5.8-.2 2.1-.8 2.1-1 0-.3-2.1-2.3-2.3-2.2zm85.4-.4l-1.2 1.1c-.8.8-1.2 1.2-1.1 1.4l1 .6 1.1.4c.2 0 1.5-1.2 1.5-1.4s-.7-1.3-1-1.7zm4.4-1.5c-.9 0-3.1.6-3.1.8l.4.9.7 1.2c.3.5.3.5 1.7.6 1.7.2 2.9.5 3.6 1 .8.6.9.6.7 0-.6-2.8-2-4.5-4-4.5zm-93 .4c-2.5.1-1.6-.2-3 .4a7 7 0 0 0-2 3.7c0 .4 0 .4.7 0 .4-.3 1.7-.6 2.8-.7 2-.2 2-.3 2.7-1.5l.7-1.3-.9-.4zM82.2 69c-.7 0-.4-.2-1 .4-1.7 2-4.3 2.2-6.2.6-1-1-1.2-1-2-.7-.4.2-2.1.4-3.7.4s-3.7 0-4.6.2l-1.8.2-1 2c-.8 1.7-1 2.5-1 4.6 0 4.6 1.6 8.8 6.3 17l2.7 4.8v14.2h1c1 0 1 0 1 1.1 0 .8.2 1.2.6 1.3l6.1.2h5.5V114c0-1.2.1-1.3.9-1.3h.8V98.2l1.8-3.1a89.3 89.3 0 0 0 6.5-13c1-3 1-7.4 0-10.1l-.6-1.8-5-.1c-4.6-.1-5.2-.2-5.9-.8l-.4-.4zM62.3 44.4v5.9l-2.5 2.2-2.4 2.3.5 1.2c.6 1.6.4 4.8-.4 6.4l-2.2 3.3c-2 2.7-2.4 4-2.4 9 0 3.7 0 4.3 1 7.2 1.5 4.2 3.7 8.7 7 14.5l3 4.7 4-2c.2-.3 0-1-1-2.7-2.5-4.5-5.5-10.7-6.2-12.7-1.7-5-1.7-8.8 0-12.2 1.5-3.3 1.2-3.1 6.7-3.2 2.9 0 5-.3 5.2-.5.5-.5-1.3-5.2-2.7-7.1-1.3-1.7-1.9-4.2-1.3-5.7.5-1.4 3.9-4.8 5.8-5.9l1.6-1h-2c-1.5 0-2 .2-2.6.8-.8.7-.8.7-1.4.2-.5-.5-1.3-.6-3-.6h-2.6l-2-4.1zm30.9-.7l-2.3 4.5h-2.3c-1.9 0-2.6.1-3.2.6-.8.7-.8.7-1.4 0-.5-.5-1-.6-2.6-.6h-2l1 .5c1.7.7 3.6 2.3 5.3 4.3 1.3 1.6 1.4 2 1.4 3.4 0 2-.3 3-1.7 4.8-1.4 1.7-2.8 6-2.2 6.7.3.3 1.5.4 5.8.4h5.4l.7 2c2.6 7 1.3 12.9-5.6 24.6-1 1.6-1.7 3-1.7 3.1a16.3 16.3 0 0 0 4.4 3c.6.1 5.8-9.6 7.8-14.7 2.2-5.4 3.1-9.4 3.1-12.8 0-3.5-.3-4.4-2.6-7.3-2.9-3.5-4.1-7.8-3-10l.5-1-4.3-4.7zm-10.1 9.1c-.2 0-.9.5-1.5 1.1-1 1-1.1 1.3-1.1 3.3v2.2h-5.3v-1.6c0-2.3-.7-3.7-2-4.4l-1.1-.6L71 54c-.6.7-1 1.5-1 1.7 0 .3.4 1 1 1.5 1 .9 1.2 1.5 1.5 3.3.7 4 1.7 6.4 3 7.9 1.6 1.7 2.8 1.7 4.3.2 1.5-1.4 2-2.4 2.9-6.3.8-3.9 1.2-4.6 2.3-5.4.5-.3.8-.7.8-.9 0-.5-2.2-3.2-2.7-3.2zm-6.7-3l-.9.3a12 12 0 0 0-2.4 1.6l.5.3 1 .6c.6.5.7.5.9.3l.6-.2c.4 0 .4-.2.5-1.4v-.6c0-.7.2-.5-.2-1zm3 0c-.7.3-.2.4-.3 1.2.2 1.4.3 1.6.8 1.7l.4.1.8-.4.9-.5c.6 0-.2-.8-1.5-1.6l-1.1-.6z" fill="url(#a)" transform="translate(0 -.2)"/></svg>