<svg xmlns="http://www.w3.org/2000/svg" height="70" viewBox="0 0 0 0 300 0 100" width="70"><linearGradient id="a" gradientUnits="userSpaceOnUse" x1="40.656" x2="40.656" y1="49.186" y2="5.912" gradientTransform="scale(1.00011 1.06687)"><stop offset="0" stop-color="#e4c100"/><stop offset="1" stop-color="#ffec9d"/></linearGradient><path d="M17.5 0L1.111 32.708h67.774L52.5 0zm9.621 11.255l1.602 1.606c1.084 0 1.547.095 1.814.368.338.344.388.337.809-.111.358-.381.69-.474 1.61-.472h1.157l-.974.635c-1.116.725-3.122 3.01-3.42 3.893-.346 1.032-.021 2.684.754 3.825.85 1.248 1.904 4.4 1.588 4.754-.124.143-1.363.27-3.07.313-3.24.081-3.03-.035-3.966 2.139-.489 1.138-.693 3.57-.693 3.57l.906.01s.089-1.863.559-3.165l.562-1.344 1.045-.143c.577-.08 1.813-.145 2.746-.145.936 0 1.92-.117 2.19-.254.432-.223.571-.17 1.187.442 1.078 1.07 2.662.903 3.696-.388.297-.35.116-.263.543-.278l.244.246c.369.392.73.448 3.414.5l3 .063.385 1.213c.287.906.375 3.242.375 3.242h.83c-.15-1.764-.32-4.033-.784-4.9-.463-.866-2.238-.771-3.492-.771s-3.232-.064-3.414-.313c-.35-.476.465-3.323 1.281-4.463.828-1.164 1.047-1.83 1.047-3.165 0-.936-.106-1.213-.869-2.274-.994-1.378-2.114-2.439-3.064-2.907l-.653-.32 1.19-.01c.943-.008 1.262.08 1.537.427.348.432.35.432.838 0 .383-.342 1.704-.007 2.105-.395l1.323-1.278.466 2.093 1.006.713 2.569 3.074-.319.699c-.682 1.49.058 4.322 1.744 6.672 1.383 1.926 1.58 2.54 1.57 4.869 0 .726-.21 2.267-.21 2.267l1.744-.004s-.425-.373-.629-.5v-1.671c0-2.228-.39-3.594-1.453-5.05-1.435-1.971-2.06-3.493-2.06-5.022 0-1.077.079-1.388.439-1.759.712-.733 1.132-.895 2.78-1.065.86-.09 1.799-.296 2.089-.466.88-.362.334-.204 1.684-.27 1.12.178 1.983.786 2.76 1.678.317.434.857 1.388 1.202 2.12.346.733.967 1.709 1.377 2.164 1.068 1.186.973 1.778-.533 3.383-.992 1.059-1.447 2.448-1.12 3.427.425.949.17.877-.56.877-.525 0-.552.049-.552.993v1.217l-43.73.041v-1.26c0-.989-.001-.991-.69-.991-.621 0-.668-.04-.488-.426.533-1.124.007-2.966-1.124-3.94-.813-.702-1.308-1.866-1.033-2.428.104-.208.46-.663.795-1.015.334-.349.868-1.213 1.184-1.92 1.14-2.552 2.59-3.815 4.383-3.815.664.002 1.195.155 1.66.482.556.392.98.482 2.28.482 1.823.002 2.075.169 2.415 1.592.362 1.525-.035 2.965-1.312 4.747-1.217 1.699-1.686 3.197-1.784 5.71l-.088 2.24-.634.344-.233.127h1.83s-.025-.864-.025-1.519c.002-3.332.196-4.144 1.424-5.978.52-.779 1.105-1.755 1.297-2.175.494-1.082.612-3.229.232-4.253l-.303-.82c.967-1.01 1.935-2.02 2.905-3.028l.789-.465zm8.965 2.42h.002c.455.238.245.114.637.375.82.557 1.244 1.042.914 1.042-.06 0-.296.148-.53.328-.234.182-.44.325-.457.318-.017-.01-.184-.254-.3-.282-.327-.07-.337-.018-.41-.945.017-.504-.26-.596.144-.836zm-1.74.033c.216.268.155.12.14.642-.002.125-.019.246-.029.37-.077.811-.093.869-.322.906-.135.018-.288.083-.34.137-.128.142-.16.13-.49-.18a2.617 2.77 0 0 0-.612-.406c-.175-.072-.316-.159-.314-.19.005-.094.86-.729 1.44-1.068.32-.175.144-.098.527-.211zm-2.573 2.022l.659.373c.8.454 1.193 1.416 1.193 2.932v1.111h3.125V18.69c0-1.362.044-1.506.664-2.208.365-.413.751-.75.861-.75.261 0 1.598 1.767 1.598 2.11 0 .148-.216.427-.48.622-.677.503-.863.988-1.38 3.568-.517 2.593-.783 3.266-1.675 4.254-.902.996-1.59.947-2.537-.182-.803-.953-1.351-2.59-1.758-5.247-.187-1.223-.345-1.61-.885-2.187-.36-.385-.654-.84-.654-1.009.345-.66.746-1.372 1.27-1.93zM.318 34.297L0 34.93l1.006 2.007h67.986L70 34.933l-.318-.637H.318zm2.108 5.475l1.847 3.691h61.454l1.847-3.69zm3.808 7.607l2.43 4.85h52.672l2.43-4.85zm4.852 9.679l2.494 4.978h42.84l2.494-4.978zm5.353 10.686l1.061 2.117h35l1.06-2.117H16.44z" fill="url(#a)"/></svg>