<svg xmlns="http://www.w3.org/2000/svg" height="70" viewBox="0 0 0 0 300 0 100" width="70"><linearGradient id="a" gradientUnits="userSpaceOnUse" x1="40.656" x2="40.656" y1="49.186" y2="5.912" gradientTransform="scale(1.00011 1.0675)"><stop offset="0" stop-color="#e4c100"/><stop offset="1" stop-color="#ffec9d"/></linearGradient><path d="M17.5 69.902L0 34.953 17.5 0h35L70 34.951 52.5 69.902z" fill="#d1a800"/><path d="M17.5 0L1.112 32.727h67.773L52.5 0zM.318 34.316L0 34.95l1.005 2.008h67.988L70 34.953l-.319-.637zm2.107 5.48l1.848 3.692h61.453l1.848-3.691zm3.81 7.61l2.43 4.853h52.67l2.43-4.854zm4.85 9.685l2.495 4.981h42.84l2.495-4.98zm5.355 10.693l1.06 2.118h35l1.06-2.118z" fill="url(#a)"/><path d="M41.737 12.69c-.401.39-1.723.053-2.106.395-.488.433-.49.433-.838 0-.275-.346-.594-.434-1.537-.426l-1.19.008.653.321c.95.468 2.07 1.53 3.064 2.908.763 1.062.87 1.341.87 2.278 0 1.336-.22 2.001-1.048 3.165-.816 1.141-1.63 3.989-1.28 4.467.182.247 2.159.312 3.413.312s3.03-.095 3.493.771c.463.869.634 3.138.783 4.904h-.83s-.088-2.338-.375-3.244l-.385-1.215-3.001-.061c-2.683-.053-3.044-.108-3.413-.5l-.245-.248c-.427.015-.245-.072-.542.277-1.034 1.292-2.618 1.459-3.696.389-.616-.611-.756-.663-1.188-.442-.27.138-1.253.253-2.189.254-.933 0-2.168.065-2.745.144l-1.046.143-.563 1.346c-.47 1.302-.558 3.167-.558 3.167l-.905-.01s.204-2.432.693-3.57c.935-2.176.726-2.06 3.965-2.142 1.708-.043 2.946-.17 3.07-.312.316-.355-.738-3.51-1.588-4.758-.775-1.142-1.1-2.794-.754-3.827.298-.884 2.304-3.17 3.42-3.895l.974-.636h-1.157c-.92-.002-1.252.093-1.61.473-.421.448-.47.455-.808.11-.267-.272-.732-.368-1.816-.368l-1.6-1.606-.32 2.323-.789.464c-.97 1.009-1.936 2.019-2.903 3.03l.302.821c.38 1.026.262 3.171-.232 4.254-.192.42-.776 1.398-1.297 2.177-1.228 1.836-1.422 2.648-1.424 5.982 0 .655.026 1.521.026 1.521h-1.83l.232-.13.635-.341.088-2.242c.098-2.515.565-4.014 1.782-5.714 1.277-1.783 1.675-3.224 1.313-4.75-.34-1.425-.592-1.591-2.416-1.593-1.3 0-1.724-.09-2.28-.481-.465-.328-.996-.481-1.66-.483-1.792 0-3.242 1.262-4.382 3.816-.316.707-.849 1.573-1.183 1.922-.335.352-.692.808-.796 1.017-.275.562.22 1.725 1.033 2.427 1.131.976 1.657 2.818 1.124 3.942-.18.386-.133.427.488.427.689 0 .69.002.69.994v1.26l43.729-.042v-1.218c0-.945.028-.994.553-.994.73 0 .986.072.56-.877-.326-.98.128-2.371 1.12-3.43 1.506-1.605 1.601-2.199.533-3.384-.41-.456-1.03-1.431-1.376-2.165-.345-.732-.886-1.686-1.204-2.12-.776-.893-1.639-1.502-2.76-1.68-1.35.066-.803-.091-1.683.271-.29.168-1.23.375-2.09.465-1.647.17-2.067.33-2.779 1.064-.36.371-.44.684-.44 1.762 0 1.53.625 3.052 2.06 5.024C50.609 26.04 51 27.405 51 29.634v1.673c.204.127.628.5.628.5l-1.743.005s.209-1.544.21-2.27c.01-2.331-.187-2.945-1.57-4.873-1.686-2.351-2.425-5.183-1.743-6.674l.318-.7-2.568-3.075-1.007-.715-.466-2.093zm-5.65.993c-.407.24-.127.331-.145.837.074.927.083.874.41.944.116.028.283.274.3.282.017.009.223-.133.457-.316.234-.18.471-.329.53-.329.33 0-.095-.485-.915-1.043-.393-.262-.179-.135-.638-.374zm-1.741.032c-.383.114-.207.038-.527.214-.58.338-1.436.974-1.441 1.067-.002.032.14.117.315.189.174.074.45.256.612.405.33.31.362.323.49.182.052-.055.204-.12.339-.138.229-.036.246-.092.323-.905.01-.124.028-.245.03-.37.015-.524.075-.373-.141-.643zm-2.573 2.025c-.523.558-.925 1.268-1.27 1.93 0 .168.296.624.656 1.01.54.578.696.965.883 2.188.407 2.66.956 4.296 1.759 5.25.948 1.13 1.634 1.179 2.536.182.892-.988 1.158-1.663 1.676-4.257.516-2.58.703-3.065 1.38-3.568.264-.196.48-.475.48-.622 0-.345-1.336-2.113-1.597-2.113-.11 0-.497.339-.862.752-.62.702-.664.845-.664 2.208v1.458h-3.125v-1.113c0-1.515-.392-2.48-1.193-2.934z" fill="#d4aa00"/></svg>