<svg height="933.333" viewBox="0 0 700 700" width="933.333" xmlns="http://www.w3.org/2000/svg"><path d="m152.9 44.2c-12.2 24.4-49.1 98-82 163.5l-59.8 119.3h677.7l-81.8-163.3-81.8-163.2-175.1-.3-175.1-.2zm140.1 84.7c7 .3 8.8.8 12.7 3.7l3.2 2.4 3.3-2.8c5.4-4.7 7.5-5.4 17.9-5.7 5.5-.2 9.9-.1 9.9.1s-2.7 2.2-6.1 4.5c-12.4 8.4-30 27.4-35.4 38.3-2.2 4.4-2.4 6-2.1 14 .4 10 3.2 18.7 9.1 28.1 6.2 9.8 13.9 30.3 15.1 40.1.6 4.4.4 5.3-1.2 6.2-2.6 1.3-12.2 2.2-28.9 2.7s-24.7 1.2-27.9 2.5c-7.3 2.7-15.4 23-18.1 45-.3 2.5-.8 5.8-1.1 7.3-.4 2.8-.4 2.8 4.3 2.5l4.8-.3.3-5c.5-8.4 3.8-22.5 7.2-31.3 3.5-8.8 3.3-8.6 11.8-9.6 4.1-.5 8.7-.8 34.7-2.1 10.2-.5 15.1-1.1 16.8-2.2 2.9-1.8 5.8-.9 10.8 3.3 6.4 5.5 9.3 7.1 14.8 7.9 6.9 1 14.3-1.9 20.8-8.2 5.9-5.6 7.3-6.2 9.4-3.7 3.9 4.7 7.4 5.2 38.9 6 14 .3 25.8.9 26.1 1.2.8.9 4.7 13.6 5.3 17.7.6 3.1 1.3 10.3 2 19 .3 2.7.7 5.7 1 6.5.6 1.4-13.3 1.5-124.6 1.7-68.8.1-124.7-.2-124.1-.5.6-.4 1-7.3 1-17.3.1-32.8 1.6-38.2 17.3-62.9 8-12.5 10.4-17.2 11.8-22.5 3.5-13.4 3.2-28.4-.8-39.6l-1.9-5.4 7.8-8c4.3-4.4 10.7-11.1 14.2-14.8 3.5-3.8 8.3-8 10.6-9.3 4.4-2.7 4.6-3.2 6-13.9.4-3.3.8-6.3.9-6.8.1-.4.2-1.7.3-2.9.1-1.9 1.4-1 8.4 5.8 8.1 8 8.3 8.1 13.7 8.3zm138.1-12.9c.1.5.2 1.3.3 1.7.1.5 1 4.5 2.1 9.1 1.7 8 2 8.4 6.4 11.5 2.5 1.7 5.1 3.6 5.6 4.2.9.9 14.2 16.7 19.7 23.5 1.2 1.4 2.9 3.4 4 4.6 1.8 2 1.8 2.2-.7 7.8-7.5 16.9-1.4 41 17.6 69.3 13.2 19.6 15.6 28 14.5 50.3-.3 6.9-.8 13.4-1 14.5-.3 1.1-.5 2.9-.5 4-.1 2-.7 2-19 2-10.4 0-19.2-.3-19.5-.6s-.8-3.4-1.1-7c-2.9-35.6-6-45.4-15.4-47.9-6.5-1.7-9.3-1.9-29.1-2.2-23.7-.3-30.9-1.2-32-4.2-2.5-6.9 4.7-30 13.9-44.6 8.1-12.9 9.6-17.6 9.4-31.2 0-7.9-1.2-11.2-6.8-19.3-10.2-14.9-24-28.2-33.2-32.1-5.6-2.4-4.4-3 5.6-2.8 10.5.2 15.1 1.7 17.1 5.4 1.4 2.6 2.3 2.5 6.8-.4 2.9-2 5.2-2.5 10.7-2.7 8.5-.2 10.5-1.2 17.5-8.3 5.4-5.6 6.9-6.5 7.1-4.6zm-86.6 27.1c.1 10.1-.6 12.2-4.6 13.7-3.4 1.3-3.7 1.2-9.7-2.8-3.4-2.3-6.2-4.3-6.2-4.5 0-.4 12.9-9.7 15.5-11.1 3.9-2.2 5-1.1 5 4.7zm20.5-4c5.7 3.5 12 9 12 10.6 0 .7-.8 1.7-1.7 2-1 .4-3.2 1.7-4.9 3l-3.2 2.4-3.6-2.2c-2.3-1.3-3.6-2.9-3.7-4.2 0-1.2-.3-4.2-.5-6.7-.5-4.6 0-7 1.3-7 .4 0 2.4 1 4.3 2.1zm22.2 22.1c4.1 4.4 11.8 15.5 11.8 17.1 0 .5-2.4 3.4-5.4 6.5-6.3 6.6-9.8 14.9-12.2 29.2-4.7 27.1-9.7 40.1-19 49.6-8.7 8.8-15.4 8.3-23.6-1.9-4.7-5.9-6.5-8.9-8.9-14.9-2.1-5.3-6.5-20.5-7.3-25.6-.3-1.5-1-5.9-1.6-9.7-2.2-13.1-3.9-18-8.9-24.1-7.9-9.8-7.9-9.4-3-18 2.3-4 5.3-8.4 6.6-9.6l2.4-2.2 4.5 2.4c9.8 5.3 13.6 14.6 13.7 34 0 3.9.3 7 .6 7.1 4 .7 30.1.2 30.2-.6.1-.5.2-6.7.4-13.6.2-9.2.7-13.4 1.9-15.7 1.6-3.1 11.8-14.2 13.1-14.2.4 0 2.5 1.9 4.7 4.2zm168.8 2.5c11.7 5.8 17.4 12.6 28.4 33.8 3.1 6.1 9 15.5 13.2 21 7.3 9.8 7.5 10.1 7.1 15.1-.3 5-3.2 10.3-8.9 16.4-12.9 13.8-17.1 25.5-13.7 38.5 1.7 6.6 1.7 6.6-.4 7.4-1.2.4-3.6.7-5.3.5-4.8-.3-5.8 1.5-6 11.9-.1 5.1-.2 9.4-.3 9.7 0 .3-12.9.5-28.5.5s-27.9-.3-27.3-.7 0-1.5-1.6-3c-2.5-2.3-2.6-2.6-3-19.3-.6-18.3-.7-19.7-3.8-29.5-2.3-7.4-5-12.4-13.2-24.4-6.3-9.3-12.6-21.2-15.3-29.1-1.1-3.2-1.8-9.1-2-16.4-.3-10-.2-11.8 1.7-15 4.4-7.8 13.3-12.1 27.9-13.6 8.7-.9 20.2-3.6 24-5.6 2.7-1.4 5.4-1.7 12-1.6 7.4.2 9.4.6 15 3.4zm-376.9 1.5c8 4.5 9.3 4.8 24.6 5.3 17.3.6 19.7 2.1 22.9 14.5 4 15.5.6 29.1-11.8 47.6-10.1 15-14.9 26.4-17.2 40.4-.6 4-1.5 17.3-2.1 30.8-.2 5.2-.5 9.5-.7 9.7-.2.1-2 1.2-4.1 2.3-2.2 1.2-3.3 2.2-2.5 2.5.7.3-11.4.5-26.8.5l-28.2.1-.1-10.1c-.1-5.6-.6-10.7-1.1-11.3s-3-1.2-5.5-1.2c-2.6-.1-4.9-.4-5.2-.7s0-2.5.6-4.8c3.8-13.7.1-25.7-11.9-38.3-7.1-7.5-10.3-13.5-10.4-19.6-.1-3.9.5-5.3 3.9-9.5 2.1-2.7 4.2-5.1 4.5-5.4 1.9-1.5 7.7-11.2 11.7-19.3 7.3-15 14.2-24.2 23.5-31.6 1-.7 4.3-2.4 7.5-3.7 4.7-1.9 7.4-2.3 13.8-2.1 7.2.2 8.7.6 14.6 3.9zm279.3 152.6c.2.4-.5.9-1.7.9-1.7.2-1.9 0-.7-.7 1.8-1.2 1.8-1.2 2.4-.2zm-265.7.8c-.3.3-1.2.4-1.9.1-.8-.3-.5-.6.6-.6 1.1-.1 1.7.2 1.3.5zm8.6.1c-.7.2-2.1.2-3 0-1-.3-.4-.5 1.2-.5 1.7 0 2.4.2 1.8.5zm-199.8 27.3c-1.5 2.9-1.4 3.3 3.6 13.3l5.1 10.2 339.3-.1c358-.1 342.5.1 342.5-4.3 0-.9.4-2.1.9-2.6.6-.6 2.3-3.7 4-6.9 2.8-5.6 2.9-6.2 1.6-9.3l-1.4-3.3h-694zm23.9 52.2c-.3.4 3.6 8.7 8.5 18.5l8.9 17.9 307.2-.1h307.2l8.9-17.5c4.8-9.6 8.8-18 8.8-18.5.1-1.2-648.8-1.5-649.5-.3zm39.9 75.6c-1.3.2-2.3.5-2.3.8 0 .5 23 46.7 23.6 47.3.5.5 526.3.5 526.8 0 1.3-1.4 23.6-47.2 23.2-47.6-.6-.6-567.5-1-571.3-.5zm46.7 97c-.7.3 21.7 46.8 23.7 49.1.2.3 96.5.5 213.9.5 188.6.1 213.7-.1 214.9-1.4 1.3-1.5 24.7-47.9 24.3-48.1-.7-.3-475.9-.4-476.8-.1zm53 107.4c0 .4 2.2 5.1 5 10.6l4.9 9.8 175-.1c96.2 0 175.1-.2 175.3-.5.8-.9 9.8-19.3 9.8-19.9 0-.4-83.2-.7-185-.6-101.7 0-185 .3-185 .7z"/></svg>