<svg height="400" viewBox="0 0 300 300" width="400" xmlns="http://www.w3.org/2000/svg"><path d="M112.2 37.4l.1 6.9-5.7 5.2-5.8 5.2 1.2 4.2c1.8 6.9.3 12.7-5.6 21.1-4.4 6.3-6.6 10.9-6 12.6.3.7.1 1.6-.3 1.8-.4.3-.7 4.6-.6 9.5.2 6.7 1 10.9 3.1 16.8 2.7 7.9 14.3 31.5 15.7 32.1.4.2.7.9.7 1.5 0 .7 1.6 3.6 3.5 6.4 3.3 4.9 3.6 5.1 6.2 4.2 1.6-.5 3.7-1.6 4.8-2.5 1.9-1.4 1.7-1.9-5.7-16.7-8.1-15.9-12.1-25.5-11.2-26.8.2-.4 0-1-.5-1.3s-.9-4.4-.9-9c0-7.3.4-9.4 2.8-14.5 1.6-3.4 3.3-6.1 3.7-6.2 1.7-.2 10.1-.8 17.1-1.2 3.9-.2 7.4-.6 7.7-.8 1.1-1.2-2.9-11.2-6.9-17.2-2.8-4.1-3.7-10.6-2.1-14.2 1.7-3.7 5.7-8 11.5-12.3l4.5-3.3-3.5.4c-1.9.2-4.5.9-5.8 1.6-1.5.8-2.8.9-4.1.1-1.1-.5-4.5-1-7.5-1H117l-2.4-4.8-2.5-4.7zm71.8-3.2c-1.1 1.8-2.1 3.6-2.2 4.1-.2.4-3.1.9-6.5 1.1-3.5.2-6.9.8-7.6 1.4-1 .9-1.8.8-3.3-.3-1-.8-3.2-1.4-4.9-1.4h-3l2.4 1.7c4 2.8 11.1 10.2 12.6 13.1 2.1 4.2.9 9.7-3.5 16.8-2.2 3.5-3.8 6.3-3.6 6.3.3 0-.1 1.5-.9 3.4s-1.2 4.1-.9 4.9c.6 1.6 1.3 1.7 16.9 2 5 .1 9.5.5 10.1.9 1.9 1.3 4.7 12 4.9 18.8.1 3.6-.5 8.7-1.2 11.5-.8 2.7-1.5 5.4-1.7 6-.1.5-1 2.7-1.9 4.9-.9 2.1-1.7 4.1-1.7 4.5 0 .3-3.1 6-6.9 12.6-3.8 6.5-6.7 12.4-6.5 12.9.8 2 9.7 7.1 10.2 5.8.2-.7 1-1.9 1.8-2.6 3.7-3.7 19.7-38.8 21-46.2.3-1.5.7-3.1 1-3.6.9-1.5 1.7-8.3 1.6-14.5-.1-6.6-1.2-9.6-6.2-15.8-6.6-8.3-9.5-17.8-7.2-24.2.9-2.6.5-3.3-4.4-8.7-5.1-5.6-5.4-6.2-5.5-11.5-.1-3.1-.1-5.9 0-6.4.2-1.6-1-.5-2.9 2.5z"/><path d="M142.5 44.6c-4 2.1-4 2-1.1 3.9 2.1 1.4 2.8 1.5 3.8.3 1.3-1.3 2-5.8.9-5.8-.3 0-1.9.7-3.6 1.6zm10.5.8c0 3.4 2 4.8 4.5 3 2-1.5 2-1.5-.5-3.4-3.3-2.6-4-2.5-4 .4zM133.3 53c-2.8 3.4-2.8 4.1-.4 6.6 2.6 2.9 3.7 5.3 4.5 9.9 2 11.5 7.3 20.5 12.1 20.5 3.5 0 8.9-6.5 10-11.9.1-.9.8-3.6 1.5-6.1s1.4-5.3 1.5-6.2c.4-2.1 3.7-6.7 4.8-6.8 1.7 0 .5-3.3-2.4-6l-3-3-2.7 3.2c-1.9 2.2-2.7 4.4-2.8 7.2 0 2.3-.1 4.5-.2 5.1-.1.5-2.3.9-4.9.8-2.7-.1-5.6-.2-6.5-.2-1.4-.1-1.8-1-1.8-3.5 0-5-1.8-9-4.8-10.8-2.6-1.5-2.8-1.4-4.9 1.2zm-64.6-.9c-4.7 1.3-9.4 5.6-13.2 12-1.9 3.3-4.6 7.1-6 8.5-4 4-3.7 6.3 1.6 11.7 3.9 4 5.5 8.6 4.7 13.2-.4 2-.1 2.4 2.1 2.7 2.5.3 2.7 1.1 2.2 6.9-.1.6-1.1 1-2.3.9-5.6-.5-6.8-.1-6.8 2.5 0 4.3-3 9.9-6.7 12.7-6.3 4.9-10.1 3.1-10.9-5-.2-1.9-.5-3.7-.8-3.9-1-1-10.9 20.9-12.1 26.7-.1.3-.9 2.2-1.8 4.4-.9 2.1-1.7 4.1-1.7 4.3 0 .3-1.1 1.4-2.4 2.4-2 1.6-2.4 2.6-1.9 5.2.4 2.5-.3 4.9-2.8 9.8-2.7 5.4-3.3 7.5-3.3 13.4-.1 5.2.4 7.8 1.7 9.8.9 1.5 2.1 4.3 2.5 6.4.6 3 1.6 4.1 5.1 6 2.4 1.3 4.8 2.3 5.2 2.3.5 0 1.3-1.8 1.9-4 2.4-8.9 9.4-12.6 18.7-10.1 4.4 1.2 16.3 11.4 16.3 14 0 3.4 3-.5 8-10.5 3-6.1 6.8-12.8 8.4-14.9 2.8-3.6 2.8-3.8 1.2-6.5-1.3-2.3-1.4-3.7-.6-7.9.9-4.6.8-8.1-.5-17.6-.4-3.4-.7-4.7-2.7-12.3-2.9-11-.2-19.7 8.2-26 4.2-3.2 4.5-3.8 5.2-9.3 1.5-12.8 2-14.1 8.2-23.6 4.2-6.3 5.1-9.3 4.7-15.6-.2-3.2-3.7-5.5-8.3-5.6-6-.1-9-.6-11.4-1.9-3-1.6-6.5-2-9.7-1.1zm155.1-.5c-.7.6-1.4.8-8.3 1.8-2.7.4-6 .9-7.2 1.1-3.6.6-7.1 3.5-7.8 6.5-1.2 5.4 1.6 11.6 10.7 24 2.2 3 2.8 5.4 3.5 14.1.5 6.6.6 6.8 5 9.8 3.1 2.2 5.2 4.8 6.9 8.6 1.4 3 2.3 5.9 2 6.4-.4.5-.2 1.2.3 1.6 1.1.6.8 2.6-1.8 11.5-1.4 4.5-2.2 10.8-2.5 20.5-.3 7.7-.8 15.2-1.2 16.6-.4 1.9.1 3.4 2 5.6 1.4 1.7 4 6.2 5.7 9.9 1.6 3.8 4.4 9.1 6.1 11.7l3.1 4.8 2.5-3.8c1.4-2.1 3.1-4.3 3.6-4.8 1.4-1.4 7.9-6 8.6-6.1.3 0 2.3-.6 4.6-1.2 7.5-2.2 13.8 1.7 16.5 10.2.7 2.2 1.4 4.2 1.5 4.4.4.6 8-3.6 9.3-5.1.6-.8 1.4-2.5 1.6-3.7s1.1-3.3 1.9-4.5c4-6.1 3.7-15.4-.9-25-2.3-4.9-3.1-7.9-2.8-9.9.4-2.1 0-3.3-1.9-5.1-1.4-1.2-2.9-3.6-3.5-5.1-.6-1.6-2.3-6.3-3.8-10.4-3.7-9.9-9.3-22-10.3-22-.8 0-1.2 1.5-1.3 5.4 0 3-3 6.6-5.4 6.6-2.3 0-11.4-8.7-11.6-11.2-.7-7.3-.6-7.1-5.9-7l-4 .1v-4c0-3.8.8-4.6 4.3-4 .4.1.4-1.6.1-3.8-.7-4.5.4-6.9 5.7-12.8 2.2-2.4 3.9-5 3.9-5.9s-1.7-3.7-3.8-6.3c-2.1-2.5-4.1-5.3-4.4-6.1-1.5-4-7.1-9.9-11-11.9-4.3-2-8.8-2.7-10-1.5z"/><path d="M135.5 90.5c-.5.2-5.4.5-10.7.8-5.4.2-10.4.9-11.2 1.6-1.9 1.6-4.6 10.2-4.6 14.8.1 11 5.1 23.3 20.7 50.6.9 1.5 1.3 7.5 1.3 18.9 0 10.5.4 16.8 1 16.9s1.5.2 2.2.3c.6 0 1.2 1.1 1.3 2.3.1 1.3.4 2.5.6 2.8.3.2 6.9.7 14.8 1 10.9.3 14.1.2 14-.8-.5-3.7.2-5.9 1.6-5.3 1.7.6 1.7 1.2 1.6-20l-.1-14 4.4-7.6c7.5-13.3 13.4-25.1 15.5-31.5 2.4-7 2.7-18.3.8-24.8-1.4-4.4-.9-4.3-17.5-4.6-4.5-.1-8.5-.6-8.8-1.1-.9-1.4-3.8-.9-6.4 1.2-3.1 2.4-8.1 2.5-12.3.3-3.1-1.7-6.2-2.4-8.2-1.8z"/><path d="M89.3 132.2c-.1 12.7-1.2 43.5-1.7 45.8-.3 1.3.2 4.8 1.1 7.7 1.5 4.7 1.5 5.9.3 10.6-.8 2.8-1.5 7-1.6 9.2s-.3 4.2-.4 4.5-.2.9-.1 1.4c.6 2.8-1.6 6.9-6.1 11.7-11.5 12.2-19.5 27.3-27.3 51.5-3.1 9.5-5.7 17.6-5.6 17.9 0 .2-.6 2-1.5 4L45 300h86v-4.7c0-3.8.7-5.5 4-9.9 2.2-2.9 4-5.8 4-6.4 0-.5-2.1-1-4.7-1h-4.8l-.3-3.8c-.5-6.9-4-17.6-9.2-27.7-2.9-5.5-6-10.9-6.9-12-5.5-6.3-5.5-6.5.7-12.7l5.6-5.8v-14.7l.1-14.8 3.7.1 3.7.1-.1-10.3c0-5.7-.2-10.4-.4-10.4-.3 0-3.1 1.3-6.4 3l-5.9 3-5.6-9.3c-3-5.1-5.5-9.8-5.5-10.4s-.4-1.3-.8-1.5c-.5-.2-3.5-5.6-6.6-12.1-3.2-6.4-5.9-11.7-6-11.7s-.3 2.4-.3 5.2zm119-2.4c-.7 1.5-2.2 4.9-3.3 7.7-2.5 6-9.3 19.8-10 20.5-.3.3-1.7 2.7-3 5.3-1.4 2.6-3.4 5.9-4.5 7.2l-2 2.5-5.5-3.5c-3-1.9-5.8-3.5-6.2-3.5-1.3 0-.8 20 .5 20.1.7.1 2.1.2 3.2.3 1.9.1 2 .9 2.3 14.9l.2 14.8 5.5 5.4c3 3.1 5.5 5.7 5.5 6 0 .2-2.5 4.3-5.5 8.9-3.1 4.7-6.7 11.1-8.1 14.3-1.3 3.2-2.9 6.7-3.4 7.8-1 2.1-4 13.2-3.9 14.3.6 4-.2 5-4.6 5.6-2.5.4-4.5 1.2-4.5 1.8 0 1.2 4.7 7.8 6.3 8.9.5.4.9 3 .9 5.8l-.2 5.1h90l-.9-2.3c-.5-1.2-2.6-5.8-4.6-10.2s-4.8-10.9-6-14.5c-7.9-22-17.5-38.8-29.7-51.8-3.6-3.9-4-4.7-4.4-11-.5-8-1.2-11.8-2.9-15.2-.9-1.8-1-3.1-.4-4.3 1.7-3 2.3-6 2.3-12.7.1-9-1.3-50.2-1.7-50.6-.1-.2-.8.9-1.4 2.4zm55.5 63.7c-.2.3-1.8.5-3.6.7-1.8.1-3.2.7-3.2 1.3.1 2.3 3.7 5.4 7.1 5.9 2 .3 4.8 1 6.3 1.5 1.4.6 2.6.9 2.6.7 0-1.3-3.1-7.4-4.2-8.3-1.7-1.3-4.5-2.3-5-1.8zM33 194.7c-.8.2-2.5 1.9-3.7 3.8-2.4 3.6-3 6.1-1.3 5 1.4-.9 5.2-1.7 7.5-1.6 3.7.1 8.8-6.7 5.3-7-.7-.1-2.4-.2-3.8-.4-1.4-.1-3.2 0-4 .2zm12.2 5c-1.2 2.5-.9 4.8.6 4.7.6-.1 2.1-.2 3.2-.3 2.7-.2 2.5-2.2-.5-4.4-2.3-1.7-2.5-1.7-3.3 0zm205 .6l-2.2 2.4 2.4 1.1c3.1 1.4 6.1-1.2 4.5-4.1-1.3-2.3-2.1-2.2-4.7.6zm-211.3 4.4c-1.4.3-1.4.8.3 4.3 1.7 3.3 2.3 3.8 4.6 3.4 1.5-.3 2.8-.6 2.9-.7.8-.8-6.5-7.3-7.8-7zm216.3 2.7c-1.6 2.3-1.8 3.2-.9 3.8 2.4 1.5 4.3.7 5.7-2.5.7-1.7 1.5-3.5 1.8-3.9.2-.5-.7-.7-2.1-.6s-3.3 1.5-4.5 3.2zm-225.8.9l-2.7 2.4 3.8 4.2c3.8 4.2 3.9 4.2 5.8 2.3 1.8-1.9 1.8-2.1.2-5.5-2.6-5.6-3.8-6.2-7.1-3.4zm235.3-.5c-.8.9-2 2.9-2.6 4.3-.8 2.2-.6 3 1.3 4.8l2.2 2.1 2-2.2c1.1-1.3 2.7-3.4 3.6-4.7 1.6-2.3 1.6-2.5-.4-4.3-2.6-2.3-4.1-2.3-6.1 0zm-214.6.1c-.7.5-1.2 1.4-1 2s1 .2 1.7-.9c1.4-2.2 1.3-2.3-.7-1.1zm196.9-.5c0 .2.7.9 1.5 1.6 1.2 1 1.5 1 1.5-.4 0-.9-.7-1.6-1.5-1.6s-1.5.2-1.5.4zm-1.9 6.3c.6 1.8 1.5 3.3 2 3.3 1.5 0 1-1.6-1.1-4.1l-2-2.4zm-191.9-.5c-.7.7-1.2 2.1-1.2 3.2.1 1.8.3 1.7 1.6-.7 1.7-3.1 1.5-4.4-.4-2.5zm-9.3 2.5c-1.4.4-5.7 6.3-4.4 6.3 1 0 7.5-4.5 7.5-5.2 0-1-1.3-1.5-3.1-1.1zm209.1.5c.1 1.6 3.6 4.2 7 5.3 2.3.7 2.3.5-.9-2.9-3.5-3.6-6.1-4.7-6.1-2.4zm-3 4.8c0 .5.5 1 1.1 1 .5 0 .7-.5.4-1-.3-.6-.8-1-1.1-1-.2 0-.4.4-.4 1zm-202.5 1c-.3.5-.1 1 .4 1 .6 0 1.1-.5 1.1-1 0-.6-.2-1-.4-1-.3 0-.8.4-1.1 1z"/></svg>